<svg width="152" height="53" viewBox="0 0 152 53" fill="none" xmlns="http://www.w3.org/2000/svg">
<path d="M75.0466 39.5602C75.195 39.1305 75.3286 38.7007 75.4474 38.271C75.581 37.8413 75.7146 37.4116 75.8482 36.9819C76.2045 35.7754 76.5904 34.5855 77.0061 33.412C77.4366 32.2386 77.9859 31.09 78.6539 29.9661C78.9953 29.3711 79.4184 28.9166 79.9231 28.6026C80.4427 28.2721 80.9697 28.082 81.5041 28.0324C81.5635 28.0159 81.6155 28.0076 81.66 28.0076C81.7194 28.0076 81.7713 28.0076 81.8159 28.0076C82.2909 28.0076 82.7437 28.115 83.1742 28.3299C83.6047 28.5448 83.9684 28.8753 84.2653 29.3215C84.4731 29.619 84.629 30.0322 84.7329 30.5611C84.8517 31.09 84.9111 31.6684 84.9111 32.2964C84.9111 32.5939 84.8962 32.8997 84.8665 33.2137C84.8517 33.5277 84.8146 33.8417 84.7552 34.1558C84.577 35.2466 84.243 36.2795 83.7531 37.2546C83.2781 38.2132 82.6249 38.8825 81.7936 39.2627C81.7639 39.2792 81.7342 39.2957 81.7045 39.3123C81.6749 39.3123 81.6452 39.3205 81.6155 39.337C81.6006 39.337 81.5784 39.3453 81.5487 39.3618C81.5338 39.3618 81.519 39.3701 81.5041 39.3866C81.2518 39.4858 81.0588 39.618 80.9252 39.7833C80.7916 39.932 80.8806 40.1965 81.1924 40.5766C81.3557 40.7584 81.5487 40.998 81.7713 41.2955C81.994 41.593 82.2241 41.8988 82.4616 42.2128C82.521 42.312 82.5804 42.4111 82.6398 42.5103C82.714 42.5929 82.7808 42.6756 82.8402 42.7582C83.1519 43.221 83.4266 43.6589 83.6641 44.0721C83.9164 44.4853 84.0797 44.8076 84.154 45.0389C84.1837 45.1216 84.1688 45.2207 84.1094 45.3364C84.0649 45.4521 83.8274 45.6587 83.3969 45.9562C83.1593 46.138 82.9812 46.262 82.8624 46.3281C82.7437 46.3942 82.6546 46.4355 82.5952 46.452C82.5804 46.452 82.5655 46.4438 82.5507 46.4272C82.5359 46.4272 82.521 46.419 82.5062 46.4024C82.4913 46.3859 82.4839 46.3777 82.4839 46.3777C82.4839 46.3777 82.4765 46.3694 82.4616 46.3529C82.2835 46.0719 82.1054 45.7992 81.9272 45.5348C81.7491 45.2703 81.5709 45.0059 81.3928 44.7415C80.8881 43.9812 80.3982 43.2788 79.9231 42.6342C79.4481 41.9897 79.0473 41.4608 78.7207 41.0476C78.6019 40.8823 78.4906 40.6923 78.3867 40.4774C78.2976 40.2626 78.2531 40.0312 78.2531 39.7833C78.2531 39.7337 78.2531 39.6841 78.2531 39.6345C78.2679 39.585 78.2754 39.5354 78.2754 39.4858C78.3199 39.2544 78.4238 39.023 78.5871 38.7916C78.7504 38.5603 79.0028 38.3454 79.3442 38.1471C80.3685 37.5686 81.1775 36.891 81.7713 36.1142C82.3651 35.3375 82.7066 34.0401 82.7956 32.2221C82.7956 32.189 82.7956 32.1642 82.7956 32.1477C82.7956 32.1312 82.7956 32.1146 82.7956 32.0981C82.7956 31.6023 82.6843 31.1643 82.4616 30.7842C82.239 30.3875 81.9421 30.1892 81.5709 30.1892C81.3483 30.1892 81.1033 30.2966 80.8361 30.5115C80.5837 30.7098 80.3165 31.0569 80.0345 31.5527C79.7227 32.1477 79.411 32.8088 79.0992 33.536C78.8023 34.2467 78.5277 34.9739 78.2754 35.7176C78.0527 36.4117 77.8523 37.0893 77.6741 37.7504C77.5108 38.4115 77.3921 39.023 77.3179 39.585C77.0358 41.5352 76.6721 42.9978 76.2267 43.9729C75.7962 44.9315 75.336 45.4191 74.8462 45.4356C74.8016 45.4356 74.7571 45.4273 74.7126 45.4108C74.668 45.4108 74.6309 45.4025 74.6012 45.386C74.3934 45.3199 74.2449 45.2042 74.1559 45.0389C74.052 44.8737 74 44.6588 74 44.3944C74 44.0143 74.0668 43.568 74.2004 43.0557C74.334 42.5268 74.475 41.9484 74.6235 41.3203C74.6977 41.0394 74.7719 40.7501 74.8462 40.4526C74.9204 40.1551 74.9872 39.8577 75.0466 39.5602Z" fill="url(#paint0_linear_2344_1587)"/>
<path d="M89.5402 35.792C89.5551 35.792 89.5625 35.792 89.5625 35.792C89.5774 35.792 89.5922 35.792 89.6071 35.792C89.6219 35.792 89.6367 35.792 89.6516 35.792C90.3641 35.7754 90.906 35.982 91.2771 36.4117C91.6631 36.8414 91.908 37.3207 92.0119 37.8496C92.0416 37.9488 92.0565 38.0479 92.0565 38.1471C92.0713 38.2462 92.0787 38.3454 92.0787 38.4446C92.0787 38.7255 92.0342 38.9817 91.9451 39.2131C91.8709 39.4445 91.7596 39.6263 91.6111 39.7585C91.6705 39.9072 91.7076 40.0477 91.7225 40.1799C91.7522 40.2956 91.767 40.4113 91.767 40.527C91.767 40.6923 91.7447 40.8493 91.7002 40.998C91.6557 41.1303 91.6037 41.2707 91.5443 41.4195C91.5295 41.4525 91.5146 41.4856 91.4998 41.5186C91.4849 41.5517 91.4701 41.5848 91.4553 41.6178C91.4849 41.6343 91.5072 41.6509 91.5221 41.6674C91.5517 41.6674 91.5814 41.6674 91.6111 41.6674C91.6408 41.6839 91.6631 41.6922 91.6779 41.6922C91.7076 41.6922 91.7373 41.6922 91.767 41.6922C91.9748 41.6922 92.1752 41.6343 92.3682 41.5186C92.576 41.403 92.7913 41.2459 93.014 41.0476C93.0585 40.9815 93.0956 41.0311 93.1253 41.1964C93.155 41.3616 93.1698 41.56 93.1698 41.7913C93.1698 41.8409 93.1698 41.8905 93.1698 41.9401C93.1698 41.9897 93.1698 42.0393 93.1698 42.0888C93.155 42.3202 93.1253 42.5351 93.0808 42.7334C93.0511 42.9152 93.0066 43.0309 92.9472 43.0805C92.8284 43.2127 92.6651 43.3284 92.4573 43.4275C92.2495 43.5267 92.0268 43.6011 91.7893 43.6507C91.7299 43.6507 91.6705 43.6589 91.6111 43.6755C91.5666 43.6755 91.5146 43.6755 91.4553 43.6755C91.3365 43.6755 91.2177 43.6672 91.099 43.6507C90.9951 43.6176 90.906 43.568 90.8318 43.5019C90.3567 44.163 89.8149 44.6588 89.2062 44.9894C88.5976 45.3199 87.9296 45.4769 87.2022 45.4604C87.0686 45.4604 86.9275 45.4521 86.7791 45.4356C86.6455 45.4191 86.5045 45.386 86.356 45.3364C85.8958 45.2373 85.4727 44.9563 85.0868 44.4936C84.7156 44.0308 84.5301 43.2127 84.5301 42.0393C84.5301 41.8905 84.5375 41.7418 84.5523 41.593C84.5523 41.4277 84.5598 41.2625 84.5746 41.0972C84.6043 40.8162 84.6637 40.5187 84.7527 40.2047C84.827 39.8742 84.9235 39.5436 85.0422 39.2131C85.3837 38.3867 85.9255 37.6265 86.6677 36.9323C87.41 36.2217 88.3675 35.8415 89.5402 35.792ZM89.2062 42.4855C89.1914 42.4359 89.1691 42.3781 89.1394 42.312C89.1246 42.2458 89.1023 42.1715 89.0726 42.0888C89.0281 41.9897 88.991 41.874 88.9613 41.7418C88.9316 41.6095 88.9168 41.4691 88.9168 41.3203C88.9168 41.2377 88.9168 41.1633 88.9168 41.0972C88.9316 41.0146 88.9465 40.9319 88.9613 40.8493C89.0058 40.6179 89.0801 40.4196 89.184 40.2543C89.2879 40.089 89.3918 39.9403 89.4957 39.8081C89.5996 39.6924 89.6961 39.5932 89.7852 39.5106C89.8891 39.4279 89.9708 39.3453 90.0301 39.2627C90.045 39.2296 90.0524 39.1966 90.0524 39.1635C90.0672 39.1305 90.0747 39.0974 90.0747 39.0643C90.0598 38.7669 89.9708 38.5189 89.8075 38.3206C89.6442 38.1223 89.4215 38.0231 89.1394 38.0231C88.9019 38.0231 88.6273 38.1223 88.3155 38.3206C88.0038 38.5189 87.6846 38.8495 87.358 39.3123C87.2096 39.5271 87.076 39.7998 86.9572 40.1304C86.8385 40.4444 86.7494 40.7749 86.69 41.122C86.6752 41.2542 86.6603 41.3864 86.6455 41.5186C86.6306 41.6343 86.6232 41.7583 86.6232 41.8905C86.6232 42.1549 86.6529 42.4029 86.7123 42.6342C86.7717 42.8491 86.8756 43.0226 87.024 43.1548C87.0389 43.1548 87.0537 43.1631 87.0686 43.1796C87.0834 43.1962 87.0983 43.2044 87.1131 43.2044C87.1873 43.254 87.2838 43.2953 87.4026 43.3284C87.5213 43.3614 87.6475 43.378 87.7811 43.378C87.885 43.378 87.989 43.3697 88.0929 43.3532C88.2116 43.3366 88.323 43.3036 88.4269 43.254C88.5605 43.1879 88.6941 43.097 88.8277 42.9813C88.9613 42.8491 89.0875 42.6838 89.2062 42.4855Z" fill="url(#paint1_linear_2344_1587)"/>
<path d="M95.3547 38.3206C95.414 38.1223 95.4734 37.924 95.5328 37.7256C95.607 37.5273 95.6738 37.329 95.7332 37.1307C95.8668 36.701 96.0078 36.263 96.1563 35.8167C96.3047 35.354 96.468 34.8334 96.6462 34.2549C96.7056 34.0896 96.7575 33.9326 96.8021 33.7839C96.8614 33.6186 96.9134 33.4616 96.9579 33.3129C96.9579 33.2798 96.9579 33.255 96.9579 33.2385C96.9728 33.222 96.9876 33.2054 97.0025 33.1889C97.1954 32.5609 97.4107 31.8833 97.6482 31.1561C97.8857 30.4123 98.2197 29.4124 98.6503 28.1564C98.7393 27.9085 98.8581 27.7184 99.0065 27.5862C99.155 27.454 99.3109 27.3713 99.4741 27.3383C99.489 27.3217 99.5038 27.3135 99.5187 27.3135C99.5484 27.3135 99.5706 27.3135 99.5855 27.3135C99.7636 27.3135 99.9269 27.3796 100.075 27.5118C100.224 27.644 100.305 27.8341 100.32 28.082C100.32 28.115 100.32 28.1564 100.32 28.2059C100.32 28.239 100.32 28.2721 100.32 28.3051C100.32 28.6687 100.276 29.1067 100.187 29.619C100.098 30.1314 99.9863 30.6602 99.8527 31.2056C99.7636 31.5527 99.6671 31.8915 99.5632 32.2221C99.4593 32.5361 99.3554 32.8418 99.2515 33.1393C99.2218 33.2385 99.1847 33.3377 99.1401 33.4368C99.1104 33.5195 99.0808 33.6021 99.0511 33.6847C98.7987 34.2797 98.5983 34.7507 98.4498 35.0978C98.3014 35.4449 98.1604 35.7754 98.0268 36.0894C98.0119 36.1225 97.9971 36.1556 97.9822 36.1886C97.9822 36.2217 97.9748 36.2547 97.96 36.2878C97.9303 36.3539 97.9006 36.42 97.8709 36.4861C97.856 36.5357 97.8338 36.5935 97.8041 36.6596C97.7596 36.7753 97.715 36.891 97.6705 37.0067C97.6259 37.1059 97.5814 37.2133 97.5369 37.329C97.1806 38.2545 96.8614 39.1552 96.5794 40.0312C96.2973 40.9071 96.0895 41.6839 95.9559 42.3615C95.941 42.4276 95.9262 42.4938 95.9114 42.5599C95.9114 42.6094 95.9114 42.659 95.9114 42.7086C95.9114 42.8408 95.941 42.94 96.0004 43.0061C96.0746 43.0557 96.1934 43.0309 96.3567 42.9317C96.6091 42.7499 96.8614 42.5599 97.1138 42.3615C97.381 42.1467 97.6408 41.9236 97.8932 41.6922C98.0416 41.5765 98.1826 41.4608 98.3162 41.3451C98.4647 41.2129 98.6057 41.0889 98.7393 40.9732C98.8284 40.9071 98.8952 40.965 98.9397 41.1468C98.9991 41.3121 99.0288 41.5269 99.0288 41.7913C99.0288 41.8409 99.0288 41.8988 99.0288 41.9649C99.0288 42.0145 99.0288 42.0723 99.0288 42.1384C99.014 42.3037 98.9768 42.469 98.9175 42.6342C98.8729 42.7995 98.8061 42.94 98.7171 43.0557C98.435 43.3862 98.1307 43.6754 97.8041 43.9234C97.4923 44.1547 97.1732 44.3696 96.8466 44.5679C96.5794 44.7167 96.3122 44.8489 96.045 44.9646C95.7778 45.0803 95.5254 45.1877 95.2879 45.2869C95.1691 45.3199 95.0503 45.3447 94.9316 45.3612C94.8277 45.3943 94.7238 45.4108 94.6198 45.4108C94.2784 45.4108 94.0112 45.3116 93.8182 45.1133C93.6401 44.8985 93.551 44.6588 93.551 44.3944C93.551 44.3448 93.551 44.3035 93.551 44.2704C93.551 44.2208 93.5584 44.1795 93.5733 44.1465C93.6327 43.8159 93.7069 43.4937 93.7959 43.1796C93.885 42.8491 93.9815 42.502 94.0854 42.1384C94.0854 42.1219 94.0854 42.1136 94.0854 42.1136C94.0706 42.1136 94.0632 42.1136 94.0632 42.1136C94.0632 42.0971 94.0632 42.0888 94.0632 42.0888C93.9295 42.2045 93.7959 42.312 93.6623 42.4111C93.5436 42.5103 93.4248 42.6094 93.3061 42.7086C93.2912 42.7251 93.2764 42.7417 93.2615 42.7582C93.2467 42.7747 93.2244 42.7912 93.1947 42.8078C93.1502 42.8574 93.0982 42.9152 93.0389 42.9813C92.9646 43.0309 92.8904 43.0887 92.8162 43.1548C92.7716 43.1879 92.7345 43.1466 92.7048 43.0309C92.6752 42.8987 92.6529 42.7582 92.638 42.6094C92.638 42.5764 92.638 42.5433 92.638 42.5103C92.6232 42.4772 92.6158 42.4442 92.6158 42.4111C92.6158 42.3781 92.6158 42.3533 92.6158 42.3367C92.6158 42.3202 92.6158 42.3037 92.6158 42.2872C92.6306 42.2706 92.638 42.2541 92.638 42.2376C92.638 42.2211 92.638 42.2045 92.638 42.188C92.638 42.1384 92.6455 42.0971 92.6603 42.064C92.6603 42.0145 92.6603 41.9649 92.6603 41.9153C92.6603 41.8988 92.6603 41.8822 92.6603 41.8657C92.6603 41.8327 92.6603 41.8079 92.6603 41.7913C92.6752 41.6591 92.6974 41.5269 92.7271 41.3947C92.7568 41.2625 92.8162 41.155 92.9052 41.0724C93.024 40.9567 93.1576 40.8245 93.3061 40.6758C93.4545 40.527 93.603 40.3783 93.7514 40.2295C93.7959 40.1799 93.8405 40.1304 93.885 40.0808C93.9295 40.0312 93.9741 39.9816 94.0186 39.932C94.1968 39.7502 94.3601 39.5684 94.5085 39.3866C94.6718 39.2048 94.8054 39.0396 94.9093 38.8908C94.939 38.8578 94.9687 38.8247 94.9984 38.7916C95.0429 38.7421 95.08 38.6925 95.1097 38.6429C95.1246 38.6429 95.1394 38.6346 95.1543 38.6181C95.1691 38.6016 95.1765 38.5851 95.1765 38.5685C95.2211 38.5189 95.2582 38.4776 95.2879 38.4446C95.3176 38.395 95.3398 38.3537 95.3547 38.3206Z" fill="url(#paint2_linear_2344_1587)"/>
<path d="M106.617 41.0476C106.692 41.0146 106.751 41.0889 106.795 41.2707C106.84 41.4525 106.862 41.6591 106.862 41.8905C106.862 41.9236 106.862 41.9649 106.862 42.0145C106.862 42.0475 106.862 42.0888 106.862 42.1384C106.847 42.3202 106.818 42.502 106.773 42.6838C106.729 42.8491 106.677 42.9648 106.617 43.0309C106.499 43.1631 106.358 43.3036 106.194 43.4523C106.046 43.5846 105.882 43.725 105.704 43.8738C105.2 44.2704 104.591 44.634 103.878 44.9646C103.181 45.2786 102.453 45.4439 101.696 45.4604C101.444 45.4604 101.191 45.4356 100.939 45.386C100.687 45.3364 100.434 45.2703 100.182 45.1877C99.514 44.9067 99.1132 44.4935 98.9796 43.9481C98.8608 43.4027 98.794 42.7169 98.7792 41.8905C98.7643 41.8244 98.7569 41.7583 98.7569 41.6922C98.7569 41.6095 98.7569 41.5269 98.7569 41.4443C98.742 40.5683 99.0093 39.7254 99.5585 38.9156C100.108 38.0892 100.947 37.3951 102.075 36.8332C102.446 36.6514 102.81 36.5192 103.166 36.4365C103.522 36.3374 103.856 36.2878 104.168 36.2878C104.762 36.2878 105.244 36.453 105.615 36.7836C105.986 37.0976 106.172 37.5769 106.172 38.2215C106.172 38.3206 106.172 38.4198 106.172 38.5189C106.172 38.6181 106.157 38.7255 106.127 38.8412C106.038 39.4032 105.786 39.9072 105.37 40.3535C104.97 40.7832 104.532 41.155 104.057 41.4691C103.864 41.5848 103.678 41.6922 103.5 41.7913C103.322 41.874 103.151 41.9484 102.988 42.0145C102.631 42.1797 102.327 42.2872 102.075 42.3367C101.822 42.3698 101.615 42.3946 101.451 42.4111C101.347 42.4276 101.251 42.4442 101.162 42.4607C101.088 42.4772 101.021 42.5103 100.961 42.5599C100.887 42.6094 100.857 42.6756 100.872 42.7582C100.887 42.8408 100.939 42.9317 101.028 43.0309C101.132 43.1631 101.295 43.2871 101.518 43.4028C101.741 43.5184 101.993 43.5763 102.275 43.5763C102.305 43.5763 102.327 43.5763 102.342 43.5763C102.372 43.5763 102.394 43.568 102.409 43.5515C102.438 43.5515 102.461 43.5515 102.476 43.5515C102.505 43.5515 102.528 43.5515 102.542 43.5515C102.72 43.535 103.055 43.4193 103.544 43.2044C104.034 42.9896 104.554 42.7003 105.103 42.3367C105.37 42.1549 105.63 41.9566 105.882 41.7418C106.15 41.5269 106.395 41.2955 106.617 41.0476ZM100.783 40.8989C101.511 40.7832 102.171 40.5601 102.765 40.2295C103.374 39.899 103.782 39.5519 103.99 39.1883C104.034 39.1057 104.064 39.0313 104.079 38.9652C104.109 38.8825 104.123 38.8082 104.123 38.7421C104.123 38.6594 104.109 38.5768 104.079 38.4942C104.049 38.4115 103.997 38.3372 103.923 38.271C103.864 38.2049 103.797 38.1553 103.723 38.1223C103.648 38.0892 103.567 38.0727 103.478 38.0727C103.329 38.0727 103.166 38.114 102.988 38.1967C102.824 38.2628 102.654 38.3537 102.476 38.4694C102.149 38.7173 101.83 39.0396 101.518 39.4362C101.221 39.8163 100.998 40.213 100.85 40.6262C100.835 40.6758 100.82 40.7253 100.805 40.7749C100.805 40.808 100.798 40.8493 100.783 40.8989Z" fill="url(#paint3_linear_2344_1587)"/>
<path d="M107.232 41.9153C107.232 41.9153 107.224 41.9153 107.209 41.9153C107.209 41.8988 107.202 41.8822 107.187 41.8657C107.172 41.8327 107.157 41.7996 107.143 41.7666C107.143 41.717 107.143 41.6674 107.143 41.6178C107.143 41.6013 107.143 41.593 107.143 41.593C107.143 41.5765 107.143 41.56 107.143 41.5434C107.157 41.4608 107.18 41.3534 107.209 41.2212C107.254 41.0724 107.306 40.9237 107.365 40.7749C107.439 40.5435 107.528 40.3369 107.632 40.1551C107.751 39.9568 107.877 39.8494 108.011 39.8329H112.286C112.301 39.8329 112.323 39.8329 112.353 39.8329C112.383 39.8329 112.412 39.8411 112.442 39.8577C112.502 39.8577 112.546 39.8824 112.576 39.932C112.62 39.9651 112.643 40.0229 112.643 40.1056C112.643 40.1056 112.643 40.1138 112.643 40.1304C112.643 40.1304 112.643 40.1386 112.643 40.1551C112.613 40.3204 112.568 40.5187 112.509 40.7501C112.45 40.965 112.346 41.2625 112.197 41.6426C112.153 41.7252 112.116 41.7913 112.086 41.8409C112.071 41.8905 112.056 41.9153 112.041 41.9153H107.232Z" fill="url(#paint4_linear_2344_1587)"/>
<path d="M115.983 37.0315C116.162 36.453 116.347 35.9076 116.54 35.3953C116.733 34.883 116.926 34.3954 117.119 33.9326C117.624 32.7427 118.114 31.7428 118.589 30.9329C119.064 30.1231 119.494 29.4785 119.88 28.9993C120.207 28.5695 120.608 28.2142 121.083 27.9332C121.573 27.6358 122.07 27.4622 122.575 27.4126C122.619 27.3961 122.664 27.3878 122.708 27.3878C122.768 27.3878 122.827 27.3878 122.886 27.3878C123.317 27.3878 123.74 27.5035 124.156 27.7349C124.571 27.9498 124.927 28.3134 125.224 28.8257C125.417 29.1397 125.558 29.5942 125.647 30.1892C125.737 30.7842 125.781 31.4122 125.781 32.0733C125.781 32.1229 125.781 32.1808 125.781 32.2469C125.781 32.2964 125.781 32.3543 125.781 32.4204C125.766 32.7014 125.751 32.9823 125.737 33.2633C125.722 33.5277 125.692 33.7756 125.647 34.007C125.588 34.3871 125.506 34.7838 125.403 35.197C125.313 35.6102 125.195 36.0233 125.046 36.4365C124.571 37.8248 123.844 39.1057 122.864 40.2791C121.899 41.436 120.712 42.0062 119.301 41.9897C119.049 41.9731 118.841 41.8492 118.678 41.6178C118.529 41.3864 118.455 41.1303 118.455 40.8493C118.455 40.5683 118.537 40.3039 118.7 40.056C118.878 39.8081 119.153 39.6759 119.524 39.6593C119.761 39.6428 120.029 39.5602 120.326 39.4114C120.622 39.2627 120.927 39.0396 121.238 38.7421C121.669 38.3124 122.085 37.7009 122.485 36.9075C122.886 36.1142 123.205 35.0895 123.443 33.8335C123.517 33.4533 123.569 33.098 123.599 32.7675C123.629 32.4369 123.643 32.1394 123.643 31.875C123.643 31.1478 123.539 30.6189 123.332 30.2884C123.139 29.9578 122.886 29.7926 122.575 29.7926C122.411 29.7926 122.241 29.8339 122.062 29.9165C121.884 29.9992 121.706 30.1148 121.528 30.2636C121.32 30.4289 121.112 30.6437 120.904 30.9082C120.712 31.1726 120.526 31.4701 120.348 31.8006C120.021 32.3956 119.702 33.0484 119.39 33.7591C119.093 34.4698 118.819 35.1804 118.566 35.8911C118.299 36.6018 118.062 37.3042 117.854 37.9983C117.646 38.676 117.475 39.3123 117.342 39.9072C117.253 40.2708 117.201 40.5601 117.186 40.7749C117.171 40.9732 117.156 41.1633 117.141 41.3451C117.141 41.3451 117.141 41.3534 117.141 41.3699C117.141 41.5021 117.134 41.6343 117.119 41.7666C117.104 41.8988 117.082 42.064 117.052 42.2624C117.008 42.4772 116.948 42.7169 116.874 42.9813C116.8 43.2457 116.718 43.5184 116.629 43.7994C116.57 43.9977 116.503 44.1961 116.429 44.3944C116.369 44.5762 116.303 44.758 116.228 44.9398C116.184 45.0389 116.139 45.1381 116.095 45.2373C116.065 45.3199 116.028 45.4025 115.983 45.4852C115.879 45.7331 115.761 45.9479 115.627 46.1297C115.493 46.3115 115.36 46.4603 115.226 46.576C115.108 46.6751 114.996 46.7413 114.892 46.7743C114.788 46.8239 114.692 46.8487 114.603 46.8487C114.41 46.8487 114.247 46.7495 114.113 46.5512C113.979 46.3694 113.913 46.0802 113.913 45.6835C113.913 45.5843 113.92 45.4687 113.935 45.3364C113.935 45.2207 113.95 45.0968 113.979 44.9646C114.054 44.601 114.187 43.9812 114.38 43.1053C114.588 42.2293 114.818 41.3038 115.07 40.3287C115.1 40.213 115.13 40.0973 115.159 39.9816C115.204 39.8659 115.241 39.742 115.271 39.6097C115.39 39.147 115.508 38.6925 115.627 38.2462C115.761 37.8 115.879 37.3951 115.983 37.0315Z" fill="url(#paint5_linear_2344_1587)"/>
<path d="M127.473 38.3206C127.532 38.1223 127.592 37.924 127.651 37.7256C127.725 37.5273 127.792 37.329 127.851 37.1307C127.985 36.701 128.126 36.263 128.274 35.8167C128.423 35.354 128.586 34.8334 128.764 34.2549C128.824 34.0896 128.876 33.9326 128.92 33.7839C128.98 33.6186 129.032 33.4616 129.076 33.3129C129.076 33.2798 129.076 33.255 129.076 33.2385C129.091 33.222 129.106 33.2054 129.121 33.1889C129.314 32.5609 129.529 31.8833 129.766 31.1561C130.004 30.4123 130.338 29.4124 130.768 28.1564C130.858 27.9085 130.976 27.7184 131.125 27.5862C131.273 27.454 131.429 27.3713 131.592 27.3383C131.607 27.3217 131.622 27.3135 131.637 27.3135C131.667 27.3135 131.689 27.3135 131.704 27.3135C131.882 27.3135 132.045 27.3796 132.194 27.5118C132.342 27.644 132.424 27.8341 132.439 28.082C132.439 28.115 132.439 28.1564 132.439 28.2059C132.439 28.239 132.439 28.2721 132.439 28.3051C132.439 28.6687 132.394 29.1067 132.305 29.619C132.216 30.1314 132.105 30.6602 131.971 31.2056C131.882 31.5527 131.785 31.8915 131.681 32.2221C131.578 32.5361 131.474 32.8418 131.37 33.1393C131.34 33.2385 131.303 33.3377 131.258 33.4368C131.229 33.5195 131.199 33.6021 131.169 33.6847C130.917 34.2797 130.716 34.7507 130.568 35.0978C130.42 35.4449 130.279 35.7754 130.145 36.0894C130.13 36.1225 130.115 36.1556 130.1 36.1886C130.1 36.2217 130.093 36.2547 130.078 36.2878C130.048 36.3539 130.019 36.42 129.989 36.4861C129.974 36.5357 129.952 36.5935 129.922 36.6596C129.878 36.7753 129.833 36.891 129.789 37.0067C129.744 37.1059 129.7 37.2133 129.655 37.329C129.299 38.2545 128.98 39.1552 128.698 40.0312C128.416 40.9071 128.208 41.6839 128.074 42.3615C128.059 42.4276 128.044 42.4938 128.03 42.5599C128.03 42.6094 128.03 42.659 128.03 42.7086C128.03 42.8408 128.059 42.94 128.119 43.0061C128.193 43.0557 128.312 43.0309 128.475 42.9317C128.727 42.7499 128.98 42.5599 129.232 42.3615C129.499 42.1467 129.759 41.9236 130.011 41.6922C130.16 41.5765 130.301 41.4608 130.434 41.3451C130.583 41.2129 130.724 41.0889 130.858 40.9732C130.947 40.9071 131.013 40.965 131.058 41.1468C131.117 41.3121 131.147 41.5269 131.147 41.7913C131.147 41.8409 131.147 41.8988 131.147 41.9649C131.147 42.0145 131.147 42.0723 131.147 42.1384C131.132 42.3037 131.095 42.469 131.036 42.6342C130.991 42.7995 130.924 42.94 130.835 43.0557C130.553 43.3862 130.249 43.6754 129.922 43.9234C129.611 44.1547 129.291 44.3696 128.965 44.5679C128.698 44.7167 128.43 44.8489 128.163 44.9646C127.896 45.0803 127.644 45.1877 127.406 45.2869C127.287 45.3199 127.169 45.3447 127.05 45.3612C126.946 45.3943 126.842 45.4108 126.738 45.4108C126.397 45.4108 126.129 45.3116 125.936 45.1133C125.758 44.8985 125.669 44.6588 125.669 44.3944C125.669 44.3448 125.669 44.3035 125.669 44.2704C125.669 44.2208 125.677 44.1795 125.691 44.1465C125.751 43.8159 125.825 43.4937 125.914 43.1796C126.003 42.8491 126.1 42.502 126.204 42.1384C126.204 42.1219 126.204 42.1136 126.204 42.1136C126.189 42.1136 126.181 42.1136 126.181 42.1136C126.181 42.0971 126.181 42.0888 126.181 42.0888C126.048 42.2045 125.914 42.312 125.781 42.4111C125.662 42.5103 125.543 42.6094 125.424 42.7086C125.409 42.7251 125.395 42.7417 125.38 42.7582C125.365 42.7747 125.343 42.7912 125.313 42.8078C125.268 42.8574 125.216 42.9152 125.157 42.9813C125.083 43.0309 125.009 43.0887 124.934 43.1548C124.89 43.1879 124.853 43.1466 124.823 43.0309C124.793 42.8987 124.771 42.7582 124.756 42.6094C124.756 42.5764 124.756 42.5433 124.756 42.5103C124.741 42.4772 124.734 42.4442 124.734 42.4111C124.734 42.3781 124.734 42.3533 124.734 42.3367C124.734 42.3202 124.734 42.3037 124.734 42.2872C124.749 42.2706 124.756 42.2541 124.756 42.2376C124.756 42.2211 124.756 42.2045 124.756 42.188C124.756 42.1384 124.764 42.0971 124.779 42.064C124.779 42.0145 124.779 41.9649 124.779 41.9153C124.779 41.8988 124.779 41.8822 124.779 41.8657C124.779 41.8327 124.779 41.8079 124.779 41.7913C124.793 41.6591 124.816 41.5269 124.845 41.3947C124.875 41.2625 124.934 41.155 125.023 41.0724C125.142 40.9567 125.276 40.8245 125.424 40.6758C125.573 40.527 125.721 40.3783 125.87 40.2295C125.914 40.1799 125.959 40.1304 126.003 40.0808C126.048 40.0312 126.092 39.9816 126.137 39.932C126.315 39.7502 126.478 39.5684 126.627 39.3866C126.79 39.2048 126.924 39.0396 127.028 38.8908C127.057 38.8578 127.087 38.8247 127.117 38.7916C127.161 38.7421 127.198 38.6925 127.228 38.6429C127.243 38.6429 127.258 38.6346 127.272 38.6181C127.287 38.6016 127.295 38.5851 127.295 38.5685C127.339 38.5189 127.376 38.4776 127.406 38.4446C127.436 38.395 127.458 38.3537 127.473 38.3206Z" fill="url(#paint6_linear_2344_1587)"/>
<path d="M137.466 43.1301C137.466 43.1301 137.466 43.1383 137.466 43.1548C137.481 43.1548 137.489 43.1548 137.489 43.1548C137.503 43.1548 137.518 43.1548 137.533 43.1548C137.652 43.1714 137.897 43.0474 138.268 42.783C138.639 42.5185 139.032 42.2045 139.448 41.8409C139.567 41.7418 139.678 41.6426 139.782 41.5434C139.901 41.4443 140.012 41.3368 140.116 41.2212C140.131 41.2046 140.153 41.1881 140.183 41.1716C140.213 41.1385 140.235 41.1137 140.25 41.0972C140.383 40.965 140.48 40.9898 140.539 41.1716C140.613 41.3368 140.651 41.56 140.651 41.8409C140.651 41.8905 140.651 41.9401 140.651 41.9897C140.651 42.0393 140.651 42.0806 140.651 42.1136C140.636 42.2458 140.613 42.3698 140.584 42.4855C140.569 42.6012 140.547 42.7003 140.517 42.783C140.458 42.9483 140.339 43.1218 140.161 43.3036C139.982 43.4689 139.775 43.6341 139.537 43.7994C139.418 43.8986 139.3 43.9895 139.181 44.0721C139.062 44.1547 138.936 44.2374 138.802 44.32C138.669 44.4026 138.535 44.4936 138.401 44.5927C138.283 44.6754 138.164 44.758 138.045 44.8406C137.852 44.9728 137.652 45.0885 137.444 45.1877C137.236 45.2703 137.028 45.3282 136.821 45.3612C136.746 45.3778 136.672 45.386 136.598 45.386C136.538 45.4025 136.472 45.4108 136.397 45.4108C136.323 45.4108 136.249 45.4025 136.175 45.386C136.115 45.386 136.056 45.3778 135.997 45.3612C135.967 45.3612 135.93 45.353 135.885 45.3364C135.856 45.3364 135.826 45.3282 135.796 45.3116C135.692 45.2951 135.611 45.196 135.551 45.0142C135.492 44.8324 135.462 44.6258 135.462 44.3944C135.462 44.3779 135.462 44.3613 135.462 44.3448C135.462 44.3283 135.462 44.3117 135.462 44.2952C135.462 44.2787 135.462 44.2622 135.462 44.2456C135.462 44.2291 135.462 44.2126 135.462 44.1961C135.403 44.2622 135.336 44.3365 135.262 44.4192C135.202 44.4853 135.136 44.5514 135.061 44.6175C134.854 44.8158 134.594 44.9976 134.282 45.1629C133.97 45.3116 133.54 45.3943 132.991 45.4108C132.991 45.4108 132.983 45.4108 132.968 45.4108C132.968 45.4108 132.961 45.4108 132.946 45.4108C132.931 45.4108 132.916 45.4108 132.901 45.4108C132.412 45.4108 131.959 45.2373 131.543 44.8902C131.142 44.5266 130.89 43.9729 130.786 43.2292C130.756 42.9978 130.734 42.783 130.719 42.5847C130.704 42.3698 130.697 42.1797 130.697 42.0145C130.697 41.6013 130.734 41.2625 130.808 40.998C130.868 40.7171 130.942 40.4526 131.031 40.2047C131.076 40.1056 131.12 40.0064 131.165 39.9072C131.209 39.8081 131.254 39.7006 131.298 39.585C131.372 39.4032 131.491 39.2131 131.654 39.0148C131.833 38.7999 132.04 38.5851 132.278 38.3702C132.768 37.9405 133.362 37.5356 134.059 37.1555C134.757 36.7753 135.484 36.5274 136.242 36.4117C136.36 36.3952 136.479 36.3869 136.598 36.3869C136.731 36.3704 136.858 36.3621 136.976 36.3621C137.006 36.3621 137.028 36.3621 137.043 36.3621C137.073 36.3621 137.103 36.3621 137.132 36.3621C137.147 36.3621 137.169 36.3621 137.199 36.3621C137.229 36.3621 137.251 36.3621 137.266 36.3621C137.31 36.3621 137.355 36.3621 137.399 36.3621C137.444 36.3621 137.489 36.3621 137.533 36.3621C137.592 36.3621 137.644 36.3704 137.689 36.3869C137.748 36.3869 137.808 36.3869 137.867 36.3869C138.119 36.3869 138.35 36.4035 138.557 36.4365C138.765 36.453 138.891 36.4861 138.936 36.5357C138.951 36.5687 138.966 36.6431 138.98 36.7588C139.01 36.8745 139.032 36.9984 139.047 37.1307C139.047 37.2298 139.047 37.329 139.047 37.4282C139.062 37.5273 139.07 37.6017 139.07 37.6513C139.07 37.7009 139.07 37.7504 139.07 37.8C139.07 37.8331 139.077 37.8661 139.092 37.8992C139.092 37.9488 139.092 37.9983 139.092 38.0479C139.092 38.081 139.092 38.114 139.092 38.1471C139.092 38.2462 139.084 38.3289 139.07 38.395C139.055 38.4446 139.01 38.4611 138.936 38.4446C138.906 38.4446 138.847 38.428 138.758 38.395C138.684 38.3454 138.58 38.2958 138.446 38.2462C138.312 38.1801 138.149 38.1306 137.956 38.0975C137.778 38.0479 137.578 38.0231 137.355 38.0231C137.34 38.0231 137.325 38.0231 137.31 38.0231C137.296 38.0231 137.281 38.0231 137.266 38.0231C137.266 38.0231 137.258 38.0231 137.244 38.0231C137.006 38.0231 136.746 38.0562 136.464 38.1223C136.182 38.1884 135.9 38.2876 135.618 38.4198C134.995 38.6842 134.416 39.0726 133.881 39.585C133.347 40.0808 133.028 40.6344 132.924 41.2459C132.909 41.4443 132.894 41.6261 132.879 41.7913C132.864 41.9566 132.857 42.1054 132.857 42.2376C132.842 42.6673 132.887 42.9648 132.991 43.1301C133.109 43.2953 133.25 43.378 133.414 43.378C133.473 43.378 133.532 43.3697 133.592 43.3532C133.666 43.3366 133.733 43.3201 133.792 43.3036C133.866 43.2705 133.941 43.2375 134.015 43.2044C134.089 43.1548 134.156 43.1053 134.215 43.0557C134.26 43.0226 134.304 42.9896 134.349 42.9565C134.393 42.9235 134.438 42.8904 134.482 42.8574C134.75 42.6425 134.995 42.4029 135.217 42.1384C135.455 41.8575 135.685 41.5434 135.908 41.1964C136.071 40.9319 136.234 40.6427 136.397 40.3287C136.576 40.0147 136.761 39.6676 136.954 39.2875C136.969 39.2875 136.984 39.2957 136.999 39.3123C137.013 39.3123 137.028 39.3205 137.043 39.337C137.103 39.3536 137.169 39.3784 137.244 39.4114C137.333 39.4279 137.422 39.4362 137.511 39.4362C137.54 39.4527 137.578 39.461 137.622 39.461C137.667 39.461 137.704 39.461 137.733 39.461C137.778 39.461 137.823 39.461 137.867 39.461C137.926 39.461 137.986 39.461 138.045 39.461C138.209 39.461 138.357 39.461 138.491 39.461C138.639 39.461 138.758 39.461 138.847 39.461C138.505 40.3204 138.186 41.0724 137.889 41.717C137.607 42.345 137.459 42.7747 137.444 43.0061C137.444 43.0226 137.444 43.0474 137.444 43.0805C137.444 43.097 137.451 43.1135 137.466 43.1301Z" fill="url(#paint7_linear_2344_1587)"/>
<path d="M145.5 36.6348L143.162 42.312L143.229 42.3863L146.279 39.4362C146.279 39.4362 146.435 39.2627 146.747 38.9156C147.059 38.5685 147.408 38.1884 147.793 37.7752C147.972 37.5769 148.15 37.3786 148.328 37.1802C148.521 36.9654 148.684 36.7836 148.818 36.6348H150.443C150.443 36.6348 150.295 37.015 149.998 37.7752C149.701 38.5189 149.374 39.3453 149.018 40.2543C148.751 40.9154 148.499 41.5517 148.261 42.1632C148.024 42.7582 147.845 43.2044 147.727 43.5019C147.875 43.4028 148.076 43.254 148.328 43.0557C148.58 42.8408 148.847 42.6094 149.13 42.3615C149.144 42.345 149.159 42.3367 149.174 42.3367C149.204 42.3202 149.226 42.3037 149.241 42.2872C149.612 41.9566 149.946 41.6591 150.243 41.3947C150.555 41.1137 150.718 40.9732 150.733 40.9732C150.748 40.9732 150.762 40.9815 150.777 40.998C150.792 40.998 150.807 41.0146 150.822 41.0476C150.866 41.1303 150.904 41.2707 150.933 41.4691C150.978 41.6674 151 41.874 151 42.0888C151 42.3698 150.955 42.5929 150.866 42.7582C150.792 42.9069 150.711 43.0309 150.621 43.1301C150.592 43.1631 150.555 43.1962 150.51 43.2292C150.48 43.2623 150.451 43.2871 150.421 43.3036C150.228 43.4689 150.035 43.6424 149.842 43.8242C149.649 43.9895 149.449 44.1547 149.241 44.32C149.181 44.3696 149.122 44.4192 149.063 44.4688C149.018 44.5183 148.966 44.5679 148.907 44.6175C148.283 45.1629 147.704 45.6918 147.17 46.2041C146.636 46.733 146.272 47.171 146.079 47.518C145.916 47.7825 145.76 48.08 145.611 48.4105C145.478 48.7411 145.344 49.0799 145.21 49.4269C145.151 49.5922 145.084 49.7575 145.01 49.9228C144.951 50.088 144.891 50.245 144.832 50.3938C144.743 50.5921 144.654 50.7822 144.565 50.964C144.49 51.1623 144.409 51.3441 144.32 51.5094C144.216 51.7242 144.105 51.8978 143.986 52.03C143.867 52.1787 143.741 52.2944 143.607 52.377C143.518 52.4432 143.429 52.4845 143.34 52.501C143.251 52.5341 143.162 52.5506 143.073 52.5506C143.013 52.5671 142.947 52.5671 142.872 52.5506C142.813 52.5341 142.754 52.5093 142.694 52.4762C142.486 52.4101 142.331 52.2696 142.227 52.0548C142.123 51.8399 142.071 51.592 142.071 51.311C142.071 51.2119 142.078 51.1127 142.093 51.0135C142.108 50.9144 142.123 50.807 142.138 50.6913C142.167 50.5425 142.204 50.3938 142.249 50.245C142.293 50.1128 142.345 49.9723 142.405 49.8236C142.553 49.46 142.731 49.0881 142.939 48.708C143.162 48.3444 143.377 47.9891 143.585 47.642C143.793 47.3114 143.993 46.9892 144.186 46.6751C144.394 46.3611 144.572 46.0636 144.721 45.7827C144.854 45.5348 144.98 45.2869 145.099 45.0389C145.218 44.7745 145.329 44.5018 145.433 44.2208C145.582 43.8407 145.723 43.4606 145.856 43.0805C146.005 42.7003 146.153 42.3533 146.302 42.0393C146.331 41.9401 146.368 41.8492 146.413 41.7666C146.457 41.6839 146.502 41.6013 146.547 41.5186L146.502 41.4691C146.383 41.5186 146.123 41.7418 145.723 42.1384C145.322 42.5185 144.869 42.94 144.364 43.4028C144.29 43.4689 144.216 43.5432 144.142 43.6259C144.067 43.692 143.993 43.7581 143.919 43.8242C143.548 44.1547 143.184 44.4605 142.828 44.7415C142.486 45.0059 142.19 45.1877 141.937 45.2869C141.907 45.2869 141.878 45.2951 141.848 45.3116C141.818 45.3116 141.789 45.3116 141.759 45.3116C141.7 45.3282 141.64 45.3447 141.581 45.3612C141.521 45.3778 141.462 45.3943 141.403 45.4108C141.373 45.4108 141.343 45.4108 141.314 45.4108C141.299 45.4108 141.284 45.4108 141.269 45.4108C141.254 45.4108 141.239 45.4108 141.225 45.4108C141.21 45.4108 141.202 45.4108 141.202 45.4108C141.024 45.3943 140.861 45.3447 140.712 45.2621C140.579 45.1629 140.497 44.9811 140.467 44.7167C140.467 44.6836 140.467 44.6588 140.467 44.6423C140.467 44.6092 140.467 44.5845 140.467 44.5679C140.467 44.4357 140.482 44.2952 140.512 44.1465C140.542 43.9977 140.586 43.849 140.646 43.7002C140.66 43.6341 140.683 43.568 140.712 43.5019C140.742 43.4193 140.772 43.3449 140.802 43.2788C140.861 43.1135 140.92 42.9648 140.98 42.8326C141.039 42.7003 141.084 42.5847 141.113 42.4855L141.024 42.3863C141.024 42.3863 140.987 42.4276 140.913 42.5103C140.853 42.5929 140.772 42.6921 140.668 42.8078C140.653 42.8243 140.631 42.8491 140.601 42.8821C140.571 42.8987 140.549 42.9152 140.534 42.9317C140.475 43.0144 140.416 43.0805 140.356 43.1301C140.282 43.1631 140.223 43.1879 140.178 43.2044C140.133 43.221 140.096 43.1548 140.067 43.0061C140.037 42.8408 140.022 42.659 140.022 42.4607C140.022 42.4111 140.022 42.3615 140.022 42.312C140.007 42.2458 140 42.188 140 42.1384C140 42.1219 140 42.1054 140 42.0888C140 42.0723 140 42.0558 140 42.0393C140 41.907 140.015 41.7831 140.044 41.6674C140.059 41.5352 140.082 41.4195 140.111 41.3203C140.126 41.2873 140.141 41.2542 140.156 41.2212C140.156 41.1881 140.163 41.1633 140.178 41.1468C140.193 41.1137 140.364 40.9402 140.69 40.6262C141.017 40.3122 141.373 39.9403 141.759 39.5106C141.833 39.4445 141.907 39.3701 141.982 39.2875C142.056 39.2048 142.13 39.1222 142.204 39.0396C142.353 38.8743 142.494 38.709 142.627 38.5437C142.761 38.3785 142.88 38.2215 142.984 38.0727L143.563 36.6348H145.5Z" fill="url(#paint8_linear_2344_1587)"/>
<path d="M4.2 24.95H14.97L14.43 23.39H4.74L4.2 24.95ZM9.54 14L13.68 24.02L13.83 24.41L16.95 32H18.81L9.54 10.19L0.27 32H2.13L5.28 24.29L5.46 23.93L9.54 14ZM21.5923 11V32H31.9123V30.44H23.2423V11H21.5923ZM30.6544 12.56H36.1744V32H37.8244V12.56H43.3444V11H30.6544V12.56ZM47.1595 32H57.5695V30.44H47.1595V32ZM47.1595 12.56H57.5695V11H47.1595V12.56ZM47.1595 21.26H56.9695V19.7H47.1595V21.26ZM46.2895 11V32H47.9395V11H46.2895ZM65.8849 21.98L72.8449 32H74.8849L67.7149 21.98H65.8849ZM62.3149 11V32H63.9649V11H62.3149ZM63.1849 12.47H67.1149C68.1749 12.47 69.1149 12.65 69.9349 13.01C70.7549 13.37 71.3949 13.89 71.8549 14.57C72.3349 15.25 72.5749 16.09 72.5749 17.09C72.5749 18.09 72.3449 18.94 71.8849 19.64C71.4249 20.32 70.7749 20.84 69.9349 21.2C69.1149 21.54 68.1749 21.71 67.1149 21.71H63.1849V23.18H67.1149C68.4749 23.18 69.6849 22.95 70.7449 22.49C71.8249 22.01 72.6749 21.31 73.2949 20.39C73.9149 19.47 74.2249 18.37 74.2249 17.09C74.2249 15.79 73.9149 14.69 73.2949 13.79C72.6749 12.89 71.8249 12.2 70.7449 11.72C69.6849 11.24 68.4749 11 67.1149 11H63.1849V12.47ZM78.018 11V32H88.338V30.44H79.668V11H78.018ZM93.8777 24.95H104.648L104.108 23.39H94.4177L93.8777 24.95ZM99.2177 14L103.358 24.02L103.508 24.41L106.628 32H108.488L99.2177 10.19L89.9477 32H91.8077L94.9577 24.29L95.1377 23.93L99.2177 14ZM127.23 11V28.58L111.27 10.19V32H112.92V14.48L128.88 32.81V11H127.23ZM133.916 11V32H135.566V11H133.916ZM139.616 32C141.656 32 143.446 31.56 144.986 30.68C146.546 29.8 147.756 28.58 148.616 27.02C149.496 25.44 149.936 23.6 149.936 21.5C149.936 19.4 149.496 17.57 148.616 16.01C147.756 14.43 146.546 13.2 144.986 12.32C143.446 11.44 141.656 11 139.616 11H134.816V12.65H139.616C140.916 12.65 142.096 12.86 143.156 13.28C144.236 13.7 145.156 14.3 145.916 15.08C146.676 15.84 147.256 16.77 147.656 17.87C148.076 18.95 148.286 20.16 148.286 21.5C148.286 22.84 148.076 24.06 147.656 25.16C147.256 26.24 146.676 27.17 145.916 27.95C145.156 28.71 144.236 29.3 143.156 29.72C142.096 30.14 140.916 30.35 139.616 30.35H134.816V32H139.616Z" fill="#E9E9E9"/>
<defs>
<linearGradient id="paint0_linear_2344_1587" x1="169.032" y1="24.02" x2="24.827" y2="46.6651" gradientUnits="userSpaceOnUse">
<stop stop-color="#56B6EC"/>
<stop offset="1" stop-color="#F8F8FF"/>
</linearGradient>
<linearGradient id="paint1_linear_2344_1587" x1="169.032" y1="24.02" x2="24.827" y2="46.6651" gradientUnits="userSpaceOnUse">
<stop stop-color="#56B6EC"/>
<stop offset="1" stop-color="#F8F8FF"/>
</linearGradient>
<linearGradient id="paint2_linear_2344_1587" x1="169.032" y1="24.02" x2="24.827" y2="46.6651" gradientUnits="userSpaceOnUse">
<stop stop-color="#56B6EC"/>
<stop offset="1" stop-color="#F8F8FF"/>
</linearGradient>
<linearGradient id="paint3_linear_2344_1587" x1="169.032" y1="24.02" x2="24.827" y2="46.6651" gradientUnits="userSpaceOnUse">
<stop stop-color="#56B6EC"/>
<stop offset="1" stop-color="#F8F8FF"/>
</linearGradient>
<linearGradient id="paint4_linear_2344_1587" x1="169.032" y1="24.02" x2="24.827" y2="46.6651" gradientUnits="userSpaceOnUse">
<stop stop-color="#56B6EC"/>
<stop offset="1" stop-color="#F8F8FF"/>
</linearGradient>
<linearGradient id="paint5_linear_2344_1587" x1="169.032" y1="24.02" x2="24.827" y2="46.6651" gradientUnits="userSpaceOnUse">
<stop stop-color="#56B6EC"/>
<stop offset="1" stop-color="#F8F8FF"/>
</linearGradient>
<linearGradient id="paint6_linear_2344_1587" x1="169.032" y1="24.02" x2="24.827" y2="46.6651" gradientUnits="userSpaceOnUse">
<stop stop-color="#56B6EC"/>
<stop offset="1" stop-color="#F8F8FF"/>
</linearGradient>
<linearGradient id="paint7_linear_2344_1587" x1="169.032" y1="24.02" x2="24.827" y2="46.6651" gradientUnits="userSpaceOnUse">
<stop stop-color="#56B6EC"/>
<stop offset="1" stop-color="#F8F8FF"/>
</linearGradient>
<linearGradient id="paint8_linear_2344_1587" x1="169.032" y1="24.02" x2="24.827" y2="46.6651" gradientUnits="userSpaceOnUse">
<stop stop-color="#56B6EC"/>
<stop offset="1" stop-color="#F8F8FF"/>
</linearGradient>
</defs>
</svg>
