<svg width="89" height="27" viewBox="0 0 89 27" fill="none" xmlns="http://www.w3.org/2000/svg">
<path d="M2.17077 13.1165C2.33984 12.6769 2.492 12.2373 2.62725 11.7978C2.77941 11.3582 2.93157 10.9186 3.08373 10.479C3.48949 9.24485 3.92907 8.02757 4.40245 6.8272C4.89275 5.62683 5.51829 4.45181 6.27909 3.30216C6.66795 2.69352 7.14979 2.22859 7.72461 1.90736C8.31635 1.56923 8.91653 1.3748 9.52517 1.32408C9.5928 1.30717 9.65197 1.29872 9.70269 1.29872C9.77032 1.29872 9.82949 1.29872 9.88021 1.29872C10.4212 1.29872 10.9369 1.40861 11.4272 1.6284C11.9175 1.84818 12.3317 2.18632 12.6698 2.6428C12.9065 2.94712 13.084 3.36979 13.2024 3.9108C13.3376 4.45181 13.4053 5.04355 13.4053 5.686C13.4053 5.99032 13.3883 6.30309 13.3545 6.62432C13.3376 6.94555 13.2954 7.26677 13.2277 7.588C13.0249 8.70384 12.6445 9.76051 12.0865 10.758C11.5455 11.7386 10.8016 12.4233 9.85485 12.8122C9.82104 12.8291 9.78723 12.846 9.75341 12.8629C9.7196 12.8629 9.68579 12.8713 9.65198 12.8882C9.63507 12.8882 9.60971 12.8967 9.57589 12.9136C9.55899 12.9136 9.54208 12.9221 9.52517 12.939C9.23776 13.0404 9.01797 13.1757 8.86581 13.3447C8.71365 13.4969 8.81509 13.7674 9.17013 14.1562C9.35611 14.3422 9.57589 14.5874 9.8295 14.8917C10.0831 15.196 10.3451 15.5088 10.6157 15.83C10.6833 15.9314 10.7509 16.0329 10.8185 16.1343C10.9031 16.2189 10.9791 16.3034 11.0468 16.3879C11.4018 16.8613 11.7146 17.3093 11.9851 17.732C12.2725 18.1547 12.4585 18.4843 12.543 18.721C12.5768 18.8056 12.5599 18.907 12.4923 19.0254C12.4416 19.1437 12.1711 19.355 11.6808 19.6594C11.4103 19.8453 11.2074 19.9721 11.0721 20.0398C10.9369 20.1074 10.8354 20.1497 10.7678 20.1666C10.7509 20.1666 10.734 20.1581 10.7171 20.1412C10.7002 20.1412 10.6833 20.1327 10.6664 20.1158C10.6495 20.0989 10.641 20.0905 10.641 20.0905C10.641 20.0905 10.6326 20.082 10.6157 20.0651C10.4128 19.7777 10.2099 19.4987 10.007 19.2282C9.80413 18.9577 9.60125 18.6872 9.39837 18.4167C8.82355 17.639 8.26563 16.9205 7.72461 16.2611C7.1836 15.6018 6.72712 15.0607 6.35517 14.6381C6.21992 14.469 6.09312 14.2746 5.97477 14.0548C5.87333 13.835 5.82261 13.5983 5.82261 13.3447C5.82261 13.294 5.82261 13.2433 5.82261 13.1926C5.83952 13.1418 5.84797 13.0911 5.84797 13.0404C5.89869 12.8037 6.01704 12.567 6.20301 12.3303C6.38899 12.0936 6.6764 11.8738 7.06525 11.671C8.23181 11.0792 9.15323 10.3861 9.8295 9.59144C10.5058 8.79683 10.8946 7.46965 10.9961 5.60992C10.9961 5.57611 10.9961 5.55075 10.9961 5.53384C10.9961 5.51693 10.9961 5.50003 10.9961 5.48312C10.9961 4.97592 10.8693 4.52789 10.6157 4.13904C10.3621 3.73328 10.0239 3.5304 9.60126 3.5304C9.34765 3.5304 9.06869 3.64029 8.76437 3.86008C8.47696 4.06296 8.17264 4.418 7.85141 4.9252C7.49637 5.53384 7.14133 6.21011 6.78629 6.954C6.44816 7.68099 6.13539 8.42488 5.84797 9.18568C5.59437 9.89576 5.36613 10.5889 5.16325 11.2652C4.97728 11.9415 4.84203 12.567 4.75749 13.1418C4.43627 15.1368 4.02205 16.6331 3.51485 17.6306C3.02456 18.6111 2.50045 19.1099 1.94253 19.1268C1.89181 19.1268 1.84109 19.1183 1.79037 19.1014C1.73965 19.1014 1.69739 19.093 1.66357 19.0761C1.42688 19.0085 1.25781 18.8901 1.15637 18.721C1.03803 18.552 0.978854 18.3322 0.978854 18.0617C0.978854 17.6728 1.05493 17.2163 1.20709 16.6922C1.35925 16.1512 1.51987 15.5595 1.68893 14.917C1.77347 14.6296 1.858 14.3338 1.94253 14.0294C2.02707 13.7251 2.10315 13.4208 2.17077 13.1165ZM18.6774 9.26176C18.6943 9.26176 18.7027 9.26176 18.7027 9.26176C18.7196 9.26176 18.7365 9.26176 18.7534 9.26176C18.7703 9.26176 18.7873 9.26176 18.8042 9.26176C19.6157 9.24485 20.2328 9.45619 20.6554 9.89576C21.095 10.3353 21.374 10.8256 21.4923 11.3666C21.5261 11.4681 21.543 11.5695 21.543 11.671C21.5599 11.7724 21.5684 11.8738 21.5684 11.9753C21.5684 12.2627 21.5177 12.5247 21.4162 12.7614C21.3317 12.9981 21.2049 13.1841 21.0358 13.3194C21.1035 13.4715 21.1457 13.6152 21.1626 13.7505C21.1965 13.8688 21.2134 13.9872 21.2134 14.1055C21.2134 14.2746 21.188 14.4352 21.1373 14.5874C21.0866 14.7226 21.0274 14.8663 20.9598 15.0185C20.9429 15.0523 20.9259 15.0861 20.909 15.1199C20.8921 15.1537 20.8752 15.1875 20.8583 15.2214C20.8921 15.2383 20.9175 15.2552 20.9344 15.2721C20.9682 15.2721 21.002 15.2721 21.0358 15.2721C21.0697 15.289 21.095 15.2974 21.1119 15.2974C21.1457 15.2974 21.1795 15.2974 21.2134 15.2974C21.4501 15.2974 21.6783 15.2383 21.8981 15.1199C22.1348 15.0016 22.3799 14.841 22.6335 14.6381C22.6842 14.5705 22.7265 14.6212 22.7603 14.7902C22.7941 14.9593 22.811 15.1622 22.811 15.3989C22.811 15.4496 22.811 15.5003 22.811 15.551C22.811 15.6018 22.811 15.6525 22.811 15.7032C22.7941 15.9399 22.7603 16.1597 22.7096 16.3626C22.6758 16.5485 22.6251 16.6669 22.5574 16.7176C22.4222 16.8529 22.2362 16.9712 21.9995 17.0726C21.7628 17.1741 21.5092 17.2502 21.2387 17.3009C21.1711 17.3009 21.1035 17.3093 21.0358 17.3262C20.9851 17.3262 20.9259 17.3262 20.8583 17.3262C20.7231 17.3262 20.5878 17.3178 20.4526 17.3009C20.3342 17.2671 20.2328 17.2163 20.1482 17.1487C19.6072 17.825 18.9901 18.3322 18.297 18.6703C17.6038 19.0085 16.843 19.1691 16.0146 19.1522C15.8624 19.1522 15.7018 19.1437 15.5327 19.1268C15.3806 19.1099 15.2199 19.0761 15.0509 19.0254C14.5268 18.9239 14.0449 18.6365 13.6054 18.1631C13.1827 17.6897 12.9714 16.8529 12.9714 15.6525C12.9714 15.5003 12.9798 15.3482 12.9967 15.196C12.9967 15.0269 13.0052 14.8579 13.0221 14.6888C13.0559 14.4014 13.1235 14.0971 13.225 13.7758C13.3095 13.4377 13.4194 13.0996 13.5546 12.7614C13.9435 11.9161 14.5606 11.1384 15.4059 10.4283C16.2513 9.70133 17.3417 9.31248 18.6774 9.26176ZM18.297 16.109C18.2801 16.0582 18.2547 15.9991 18.2209 15.9314C18.204 15.8638 18.1786 15.7877 18.1448 15.7032C18.0941 15.6018 18.0518 15.4834 18.018 15.3482C17.9842 15.2129 17.9673 15.0692 17.9673 14.917C17.9673 14.8325 17.9673 14.7564 17.9673 14.6888C17.9842 14.6043 18.0011 14.5197 18.018 14.4352C18.0687 14.1985 18.1533 13.9956 18.2716 13.8266C18.3899 13.6575 18.5083 13.5053 18.6266 13.3701C18.745 13.2517 18.8549 13.1503 18.9563 13.0658C19.0747 12.9812 19.1677 12.8967 19.2353 12.8122C19.2522 12.7783 19.2606 12.7445 19.2606 12.7107C19.2775 12.6769 19.286 12.6431 19.286 12.6093C19.2691 12.305 19.1677 12.0514 18.9817 11.8485C18.7957 11.6456 18.5421 11.5442 18.2209 11.5442C17.9504 11.5442 17.6376 11.6456 17.2826 11.8485C16.9275 12.0514 16.564 12.3895 16.1921 12.8629C16.023 13.0827 15.8709 13.3616 15.7356 13.6998C15.6003 14.021 15.4989 14.3591 15.4313 14.7142C15.4144 14.8494 15.3975 14.9847 15.3806 15.1199C15.3637 15.2383 15.3552 15.3651 15.3552 15.5003C15.3552 15.7708 15.389 16.0244 15.4566 16.2611C15.5243 16.4809 15.6426 16.6584 15.8117 16.7937C15.8286 16.7937 15.8455 16.8021 15.8624 16.819C15.8793 16.8359 15.8962 16.8444 15.9131 16.8444C15.9977 16.8951 16.1075 16.9374 16.2428 16.9712C16.3781 17.005 16.5218 17.0219 16.6739 17.0219C16.7923 17.0219 16.9106 17.0135 17.029 16.9966C17.1642 16.9797 17.291 16.9458 17.4094 16.8951C17.5615 16.8275 17.7137 16.7345 17.8658 16.6162C18.018 16.4809 18.1617 16.3118 18.297 16.109ZM25.2993 11.8485C25.3669 11.6456 25.4345 11.4427 25.5022 11.2398C25.5867 11.037 25.6628 10.8341 25.7304 10.6312C25.8826 10.1916 26.0432 9.7436 26.2123 9.28712C26.3813 8.81373 26.5673 8.28117 26.7702 7.68944C26.8378 7.52037 26.897 7.35976 26.9477 7.2076C27.0153 7.03853 27.0745 6.87792 27.1252 6.72576C27.1252 6.69195 27.1252 6.66659 27.1252 6.64968C27.1421 6.63277 27.159 6.61587 27.1759 6.59896C27.3957 5.95651 27.6409 5.26333 27.9114 4.51944C28.1819 3.75864 28.5623 2.73579 29.0526 1.45088C29.154 1.19728 29.2893 1.00285 29.4583 0.867599C29.6274 0.732345 29.8049 0.647812 29.9909 0.613999C30.0078 0.597093 30.0247 0.588639 30.0416 0.588639C30.0754 0.588639 30.1008 0.588639 30.1177 0.588639C30.3206 0.588639 30.5065 0.656266 30.6756 0.791518C30.8447 0.926772 30.9377 1.1212 30.9546 1.3748C30.9546 1.40861 30.9546 1.45088 30.9546 1.5016C30.9546 1.53541 30.9546 1.56923 30.9546 1.60304C30.9546 1.97499 30.9039 2.42301 30.8024 2.94712C30.701 3.47123 30.5742 4.01224 30.422 4.57016C30.3206 4.9252 30.2107 5.27179 30.0923 5.60992C29.974 5.93115 29.8556 6.24392 29.7373 6.54824C29.7035 6.64968 29.6612 6.75112 29.6105 6.85256C29.5767 6.93709 29.5429 7.02163 29.5091 7.10616C29.2216 7.7148 28.9934 8.19664 28.8243 8.55168C28.6553 8.90672 28.4947 9.24485 28.3425 9.56608C28.3256 9.59989 28.3087 9.63371 28.2918 9.66752C28.2918 9.70133 28.2833 9.73515 28.2664 9.76896C28.2326 9.83659 28.1988 9.90421 28.165 9.97184C28.1481 10.0226 28.1227 10.0817 28.0889 10.1494C28.0382 10.2677 27.9875 10.3861 27.9367 10.5044C27.886 10.6058 27.8353 10.7157 27.7846 10.8341C27.3788 11.7809 27.0153 12.7023 26.6941 13.5983C26.3729 14.4944 26.1362 15.289 25.984 15.9822C25.9671 16.0498 25.9502 16.1174 25.9333 16.185C25.9333 16.2358 25.9333 16.2865 25.9333 16.3372C25.9333 16.4725 25.9671 16.5739 26.0347 16.6415C26.1193 16.6922 26.2545 16.6669 26.4405 16.5654C26.7279 16.3795 27.0153 16.185 27.3027 15.9822C27.6071 15.7624 27.9029 15.5341 28.1903 15.2974C28.3594 15.1791 28.52 15.0607 28.6722 14.9424C28.8412 14.8071 29.0019 14.6803 29.154 14.562C29.2555 14.4944 29.3315 14.5535 29.3823 14.7395C29.4499 14.9086 29.4837 15.1284 29.4837 15.3989C29.4837 15.4496 29.4837 15.5088 29.4837 15.5764C29.4837 15.6271 29.4837 15.6863 29.4837 15.7539C29.4668 15.923 29.4245 16.0921 29.3569 16.2611C29.3062 16.4302 29.2301 16.5739 29.1287 16.6922C28.8074 17.0304 28.4608 17.3262 28.0889 17.5798C27.7339 17.8165 27.3704 18.0363 26.9984 18.2392C26.6941 18.3914 26.3898 18.5266 26.0855 18.645C25.7811 18.7633 25.4937 18.8732 25.2232 18.9746C25.088 19.0085 24.9527 19.0338 24.8175 19.0507C24.6991 19.0845 24.5808 19.1014 24.4624 19.1014C24.0736 19.1014 23.7692 19 23.5495 18.7971C23.3466 18.5773 23.2451 18.3322 23.2451 18.0617C23.2451 18.011 23.2451 17.9687 23.2451 17.9349C23.2451 17.8842 23.2536 17.8419 23.2705 17.8081C23.3381 17.4699 23.4227 17.1403 23.5241 16.819C23.6255 16.4809 23.7354 16.1259 23.8538 15.7539C23.8538 15.737 23.8538 15.7286 23.8538 15.7286C23.8369 15.7286 23.8284 15.7286 23.8284 15.7286C23.8284 15.7117 23.8284 15.7032 23.8284 15.7032C23.6763 15.8215 23.5241 15.9314 23.3719 16.0329C23.2367 16.1343 23.1014 16.2358 22.9662 16.3372C22.9493 16.3541 22.9324 16.371 22.9155 16.3879C22.8985 16.4048 22.8732 16.4217 22.8394 16.4386C22.7887 16.4894 22.7295 16.5485 22.6619 16.6162C22.5773 16.6669 22.4928 16.7261 22.4083 16.7937C22.3575 16.8275 22.3153 16.7852 22.2815 16.6669C22.2476 16.5316 22.2223 16.3879 22.2054 16.2358C22.2054 16.2019 22.2054 16.1681 22.2054 16.1343C22.1885 16.1005 22.18 16.0667 22.18 16.0329C22.18 15.9991 22.18 15.9737 22.18 15.9568C22.18 15.9399 22.18 15.923 22.18 15.9061C22.1969 15.8892 22.2054 15.8723 22.2054 15.8554C22.2054 15.8385 22.2054 15.8215 22.2054 15.8046C22.2054 15.7539 22.2138 15.7117 22.2307 15.6778C22.2307 15.6271 22.2307 15.5764 22.2307 15.5257C22.2307 15.5088 22.2307 15.4919 22.2307 15.475C22.2307 15.4411 22.2307 15.4158 22.2307 15.3989C22.2476 15.2636 22.273 15.1284 22.3068 14.9931C22.3406 14.8579 22.4083 14.748 22.5097 14.6634C22.6449 14.5451 22.7971 14.4098 22.9662 14.2577C23.1352 14.1055 23.3043 13.9534 23.4734 13.8012C23.5241 13.7505 23.5748 13.6998 23.6255 13.649C23.6763 13.5983 23.727 13.5476 23.7777 13.4969C23.9806 13.3109 24.1665 13.1249 24.3356 12.939C24.5216 12.753 24.6737 12.5839 24.7921 12.4318C24.8259 12.3979 24.8597 12.3641 24.8935 12.3303C24.9443 12.2796 24.9865 12.2289 25.0203 12.1782C25.0372 12.1782 25.0541 12.1697 25.0711 12.1528C25.088 12.1359 25.0964 12.119 25.0964 12.1021C25.1471 12.0514 25.1894 12.0091 25.2232 11.9753C25.257 11.9246 25.2824 11.8823 25.2993 11.8485ZM38.1261 14.6381C38.2106 14.6043 38.2783 14.6803 38.329 14.8663C38.3797 15.0523 38.4051 15.2636 38.4051 15.5003C38.4051 15.5341 38.4051 15.5764 38.4051 15.6271C38.4051 15.6609 38.4051 15.7032 38.4051 15.7539C38.3882 15.9399 38.3543 16.1259 38.3036 16.3118C38.2529 16.4809 38.1937 16.5993 38.1261 16.6669C37.9909 16.8021 37.8302 16.9458 37.6443 17.098C37.4752 17.2333 37.2892 17.377 37.0863 17.5291C36.5115 17.9349 35.8183 18.3068 35.0068 18.645C34.2122 18.9662 33.3838 19.1353 32.5215 19.1522C32.2341 19.1522 31.9467 19.1268 31.6593 19.0761C31.3719 19.0254 31.0845 18.9577 30.7971 18.8732C30.0363 18.5858 29.5798 18.1631 29.4276 17.6052C29.2924 17.0473 29.2163 16.3457 29.1994 15.5003C29.1825 15.4327 29.174 15.3651 29.174 15.2974C29.174 15.2129 29.174 15.1284 29.174 15.0438C29.1571 14.1478 29.4614 13.2855 30.087 12.4571C30.7125 11.6118 31.6678 10.9017 32.9527 10.3269C33.3753 10.1409 33.7895 10.0057 34.1953 9.92112C34.6011 9.81968 34.9815 9.76896 35.3365 9.76896C36.0128 9.76896 36.5622 9.93803 36.9849 10.2762C37.4076 10.5974 37.6189 11.0877 37.6189 11.747C37.6189 11.8485 37.6189 11.9499 37.6189 12.0514C37.6189 12.1528 37.602 12.2627 37.5682 12.381C37.4667 12.9559 37.1793 13.4715 36.7059 13.928C36.2495 14.3676 35.7507 14.748 35.2097 15.0692C34.9899 15.1875 34.7786 15.2974 34.5757 15.3989C34.3728 15.4834 34.1784 15.5595 33.9924 15.6271C33.5867 15.7962 33.2401 15.9061 32.9527 15.9568C32.6653 15.9906 32.4286 16.016 32.2426 16.0329C32.1242 16.0498 32.0143 16.0667 31.9129 16.0836C31.8284 16.1005 31.7523 16.1343 31.6847 16.185C31.6001 16.2358 31.5663 16.3034 31.5832 16.3879C31.6001 16.4725 31.6593 16.5654 31.7607 16.6669C31.8791 16.8021 32.0651 16.9289 32.3187 17.0473C32.5723 17.1656 32.8597 17.2248 33.1809 17.2248C33.2147 17.2248 33.2401 17.2248 33.257 17.2248C33.2908 17.2248 33.3162 17.2163 33.3331 17.1994C33.3669 17.1994 33.3922 17.1994 33.4091 17.1994C33.443 17.1994 33.4683 17.1994 33.4852 17.1994C33.6881 17.1825 34.0685 17.0642 34.6264 16.8444C35.1843 16.6246 35.7761 16.3287 36.4016 15.9568C36.7059 15.7708 37.0018 15.5679 37.2892 15.3482C37.5935 15.1284 37.8725 14.8917 38.1261 14.6381ZM31.4818 14.4859C32.3102 14.3676 33.0626 14.1393 33.7388 13.8012C34.432 13.4631 34.8969 13.108 35.1336 12.7361C35.1843 12.6515 35.2182 12.5755 35.2351 12.5078C35.2689 12.4233 35.2858 12.3472 35.2858 12.2796C35.2858 12.1951 35.2689 12.1105 35.2351 12.026C35.2013 11.9415 35.1421 11.8654 35.0575 11.7978C34.9899 11.7301 34.9138 11.6794 34.8293 11.6456C34.7448 11.6118 34.6518 11.5949 34.5503 11.5949C34.3813 11.5949 34.1953 11.6371 33.9924 11.7217C33.8065 11.7893 33.612 11.8823 33.4091 12.0006C33.0372 12.2542 32.6737 12.5839 32.3187 12.9897C31.9805 13.3785 31.7269 13.7843 31.5579 14.207C31.541 14.2577 31.5241 14.3084 31.5071 14.3591C31.5071 14.3929 31.4987 14.4352 31.4818 14.4859ZM38.8257 15.5257C38.8257 15.5257 38.8172 15.5257 38.8003 15.5257C38.8003 15.5088 38.7919 15.4919 38.775 15.475C38.7581 15.4411 38.7412 15.4073 38.7242 15.3735C38.7242 15.3228 38.7242 15.2721 38.7242 15.2214C38.7242 15.2045 38.7242 15.196 38.7242 15.196C38.7242 15.1791 38.7242 15.1622 38.7242 15.1453C38.7412 15.0607 38.7665 14.9509 38.8003 14.8156C38.851 14.6634 38.9102 14.5113 38.9778 14.3591C39.0624 14.1224 39.1638 13.9111 39.2822 13.7251C39.4174 13.5222 39.5611 13.4123 39.7133 13.3954H44.5824C44.5993 13.3954 44.6247 13.3954 44.6585 13.3954C44.6923 13.3954 44.7261 13.4039 44.7599 13.4208C44.8276 13.4208 44.8783 13.4462 44.9121 13.4969C44.9628 13.5307 44.9882 13.5899 44.9882 13.6744C44.9882 13.6744 44.9882 13.6829 44.9882 13.6998C44.9882 13.6998 44.9882 13.7082 44.9882 13.7251C44.9544 13.8942 44.9036 14.0971 44.836 14.3338C44.7684 14.5535 44.65 14.8579 44.481 15.2467C44.4302 15.3313 44.388 15.3989 44.3542 15.4496C44.3373 15.5003 44.3204 15.5257 44.3034 15.5257H38.8257ZM48.793 10.5298C48.9958 9.93803 49.2072 9.38011 49.427 8.856C49.6467 8.33189 49.8665 7.83315 50.0863 7.35976C50.6611 6.14248 51.2191 5.11963 51.7601 4.2912C52.3011 3.46277 52.7914 2.80341 53.231 2.31312C53.6029 1.87355 54.0594 1.51005 54.6004 1.22264C55.1583 0.918319 55.7247 0.740798 56.2995 0.690078C56.3502 0.673172 56.401 0.664718 56.4517 0.664718C56.5193 0.664718 56.5869 0.664718 56.6546 0.664718C57.1448 0.664718 57.6267 0.783065 58.1001 1.01976C58.5735 1.23955 58.9792 1.61149 59.3174 2.1356C59.5371 2.45683 59.6978 2.92176 59.7992 3.5304C59.9006 4.13904 59.9514 4.78149 59.9514 5.45776C59.9514 5.50848 59.9514 5.56765 59.9514 5.63528C59.9514 5.686 59.9514 5.74517 59.9514 5.8128C59.9345 6.10021 59.9175 6.38763 59.9006 6.67504C59.8837 6.94555 59.8499 7.19915 59.7992 7.43584C59.7316 7.82469 59.6386 8.23045 59.5202 8.65312C59.4188 9.07579 59.2835 9.49845 59.1145 9.92112C58.5735 11.3413 57.745 12.6515 56.6292 13.8519C55.5303 15.0354 54.1777 15.6187 52.5716 15.6018C52.2842 15.5849 52.0475 15.4581 51.8615 15.2214C51.6924 14.9847 51.6079 14.7226 51.6079 14.4352C51.6079 14.1478 51.7009 13.8773 51.8869 13.6237C52.0898 13.3701 52.4025 13.2348 52.8252 13.2179C53.0957 13.201 53.4 13.1165 53.7382 12.9643C54.0763 12.8122 54.4229 12.5839 54.7779 12.2796C55.2682 11.84 55.7416 11.2145 56.1981 10.403C56.6546 9.59144 57.0181 8.54323 57.2886 7.25832C57.3731 6.86947 57.4323 6.50597 57.4661 6.16784C57.4999 5.82971 57.5168 5.52539 57.5168 5.25488C57.5168 4.51099 57.3985 3.96997 57.1618 3.63184C56.942 3.29371 56.6546 3.12464 56.2995 3.12464C56.1135 3.12464 55.9191 3.16691 55.7162 3.25144C55.5134 3.33597 55.3105 3.45432 55.1076 3.60648C54.8709 3.77555 54.6342 3.99533 54.3975 4.26584C54.1777 4.53635 53.9664 4.84067 53.7635 5.1788C53.3916 5.78744 53.0281 6.45525 52.673 7.18224C52.3349 7.90923 52.0221 8.63621 51.7347 9.3632C51.4304 10.0902 51.1599 10.8087 50.9232 11.5188C50.6865 12.212 50.4921 12.8629 50.3399 13.4715C50.2385 13.8435 50.1793 14.1393 50.1624 14.3591C50.1455 14.562 50.1286 14.7564 50.1117 14.9424C50.1117 14.9424 50.1117 14.9509 50.1117 14.9678C50.1117 15.103 50.1032 15.2383 50.0863 15.3735C50.0694 15.5088 50.044 15.6778 50.0102 15.8807C49.9595 16.1005 49.8919 16.3457 49.8074 16.6162C49.7228 16.8867 49.6298 17.1656 49.5284 17.453C49.4608 17.6559 49.3847 17.8588 49.3002 18.0617C49.2325 18.2477 49.1564 18.4336 49.0719 18.6196C49.0212 18.721 48.9705 18.8225 48.9198 18.9239C48.8859 19.0085 48.8437 19.093 48.793 19.1775C48.6746 19.4311 48.5394 19.6509 48.3872 19.8369C48.235 20.0229 48.0829 20.175 47.9307 20.2934C47.7955 20.3948 47.6687 20.4624 47.5503 20.4962C47.432 20.547 47.3221 20.5723 47.2206 20.5723C47.0008 20.5723 46.8149 20.4709 46.6627 20.268C46.5106 20.082 46.4345 19.7862 46.4345 19.3804C46.4345 19.279 46.4429 19.1606 46.4598 19.0254C46.4598 18.907 46.4767 18.7802 46.5106 18.645C46.5951 18.273 46.7472 17.639 46.967 16.743C47.2037 15.8469 47.4658 14.9001 47.7532 13.9026C47.787 13.7843 47.8208 13.6659 47.8546 13.5476C47.9054 13.4293 47.9476 13.3025 47.9814 13.1672C48.1167 12.6938 48.2519 12.2289 48.3872 11.7724C48.5394 11.3159 48.6746 10.9017 48.793 10.5298ZM61.8781 11.8485C61.9458 11.6456 62.0134 11.4427 62.081 11.2398C62.1655 11.037 62.2416 10.8341 62.3092 10.6312C62.4614 10.1916 62.622 9.7436 62.7911 9.28712C62.9602 8.81373 63.1461 8.28117 63.349 7.68944C63.4166 7.52037 63.4758 7.35976 63.5265 7.2076C63.5942 7.03853 63.6533 6.87792 63.704 6.72576C63.704 6.69195 63.704 6.66659 63.704 6.64968C63.721 6.63277 63.7379 6.61587 63.7548 6.59896C63.9746 5.95651 64.2197 5.26333 64.4902 4.51944C64.7607 3.75864 65.1411 2.73579 65.6314 1.45088C65.7328 1.19728 65.8681 1.00285 66.0372 0.867599C66.2062 0.732345 66.3838 0.647812 66.5697 0.613999C66.5866 0.597093 66.6035 0.588639 66.6204 0.588639C66.6543 0.588639 66.6796 0.588639 66.6965 0.588639C66.8994 0.588639 67.0854 0.656266 67.2544 0.791518C67.4235 0.926772 67.5165 1.1212 67.5334 1.3748C67.5334 1.40861 67.5334 1.45088 67.5334 1.5016C67.5334 1.53541 67.5334 1.56923 67.5334 1.60304C67.5334 1.97499 67.4827 2.42301 67.3812 2.94712C67.2798 3.47123 67.153 4.01224 67.0008 4.57016C66.8994 4.9252 66.7895 5.27179 66.6712 5.60992C66.5528 5.93115 66.4345 6.24392 66.3161 6.54824C66.2823 6.64968 66.24 6.75112 66.1893 6.85256C66.1555 6.93709 66.1217 7.02163 66.0879 7.10616C65.8005 7.7148 65.5722 8.19664 65.4032 8.55168C65.2341 8.90672 65.0735 9.24485 64.9213 9.56608C64.9044 9.59989 64.8875 9.63371 64.8706 9.66752C64.8706 9.70133 64.8622 9.73515 64.8452 9.76896C64.8114 9.83659 64.7776 9.90421 64.7438 9.97184C64.7269 10.0226 64.7015 10.0817 64.6677 10.1494C64.617 10.2677 64.5663 10.3861 64.5156 10.5044C64.4648 10.6058 64.4141 10.7157 64.3634 10.8341C63.9576 11.7809 63.5942 12.7023 63.2729 13.5983C62.9517 14.4944 62.715 15.289 62.5628 15.9822C62.5459 16.0498 62.529 16.1174 62.5121 16.185C62.5121 16.2358 62.5121 16.2865 62.5121 16.3372C62.5121 16.4725 62.5459 16.5739 62.6136 16.6415C62.6981 16.6922 62.8334 16.6669 63.0193 16.5654C63.3067 16.3795 63.5942 16.185 63.8816 15.9822C64.1859 15.7624 64.4818 15.5341 64.7692 15.2974C64.9382 15.1791 65.0988 15.0607 65.251 14.9424C65.4201 14.8071 65.5807 14.6803 65.7328 14.562C65.8343 14.4944 65.9104 14.5535 65.9611 14.7395C66.0287 14.9086 66.0625 15.1284 66.0625 15.3989C66.0625 15.4496 66.0625 15.5088 66.0625 15.5764C66.0625 15.6271 66.0625 15.6863 66.0625 15.7539C66.0456 15.923 66.0034 16.0921 65.9357 16.2611C65.885 16.4302 65.8089 16.5739 65.7075 16.6922C65.3863 17.0304 65.0397 17.3262 64.6677 17.5798C64.3127 17.8165 63.9492 18.0363 63.5772 18.2392C63.2729 18.3914 62.9686 18.5266 62.6643 18.645C62.36 18.7633 62.0726 18.8732 61.802 18.9746C61.6668 19.0085 61.5315 19.0338 61.3963 19.0507C61.2779 19.0845 61.1596 19.1014 61.0412 19.1014C60.6524 19.1014 60.3481 19 60.1283 18.7971C59.9254 18.5773 59.824 18.3322 59.824 18.0617C59.824 18.011 59.824 17.9687 59.824 17.9349C59.824 17.8842 59.8324 17.8419 59.8493 17.8081C59.917 17.4699 60.0015 17.1403 60.1029 16.819C60.2044 16.4809 60.3143 16.1259 60.4326 15.7539C60.4326 15.737 60.4326 15.7286 60.4326 15.7286C60.4157 15.7286 60.4072 15.7286 60.4072 15.7286C60.4072 15.7117 60.4072 15.7032 60.4072 15.7032C60.2551 15.8215 60.1029 15.9314 59.9508 16.0329C59.8155 16.1343 59.6803 16.2358 59.545 16.3372C59.5281 16.3541 59.5112 16.371 59.4943 16.3879C59.4774 16.4048 59.452 16.4217 59.4182 16.4386C59.3675 16.4894 59.3083 16.5485 59.2407 16.6162C59.1562 16.6669 59.0716 16.7261 58.9871 16.7937C58.9364 16.8275 58.8941 16.7852 58.8603 16.6669C58.8265 16.5316 58.8011 16.3879 58.7842 16.2358C58.7842 16.2019 58.7842 16.1681 58.7842 16.1343C58.7673 16.1005 58.7588 16.0667 58.7588 16.0329C58.7588 15.9991 58.7588 15.9737 58.7588 15.9568C58.7588 15.9399 58.7588 15.923 58.7588 15.9061C58.7758 15.8892 58.7842 15.8723 58.7842 15.8554C58.7842 15.8385 58.7842 15.8215 58.7842 15.8046C58.7842 15.7539 58.7927 15.7117 58.8096 15.6778C58.8096 15.6271 58.8096 15.5764 58.8096 15.5257C58.8096 15.5088 58.8096 15.4919 58.8096 15.475C58.8096 15.4411 58.8096 15.4158 58.8096 15.3989C58.8265 15.2636 58.8518 15.1284 58.8856 14.9931C58.9195 14.8579 58.9871 14.748 59.0885 14.6634C59.2238 14.5451 59.3759 14.4098 59.545 14.2577C59.7141 14.1055 59.8831 13.9534 60.0522 13.8012C60.1029 13.7505 60.1536 13.6998 60.2044 13.649C60.2551 13.5983 60.3058 13.5476 60.3565 13.4969C60.5594 13.3109 60.7454 13.1249 60.9144 12.939C61.1004 12.753 61.2526 12.5839 61.3709 12.4318C61.4047 12.3979 61.4386 12.3641 61.4724 12.3303C61.5231 12.2796 61.5654 12.2289 61.5992 12.1782C61.6161 12.1782 61.633 12.1697 61.6499 12.1528C61.6668 12.1359 61.6752 12.119 61.6752 12.1021C61.726 12.0514 61.7682 12.0091 61.802 11.9753C61.8359 11.9246 61.8612 11.8823 61.8781 11.8485ZM73.2594 16.7683C73.2594 16.7683 73.2594 16.7768 73.2594 16.7937C73.2763 16.7937 73.2848 16.7937 73.2848 16.7937C73.3017 16.7937 73.3186 16.7937 73.3355 16.7937C73.4707 16.8106 73.7497 16.6838 74.1724 16.4133C74.595 16.1428 75.0431 15.8215 75.5165 15.4496C75.6517 15.3482 75.7785 15.2467 75.8969 15.1453C76.0321 15.0438 76.1589 14.9339 76.2773 14.8156C76.2942 14.7987 76.3195 14.7818 76.3533 14.7649C76.3871 14.7311 76.4125 14.7057 76.4294 14.6888C76.5816 14.5535 76.6915 14.5789 76.7591 14.7649C76.8436 14.9339 76.8859 15.1622 76.8859 15.4496C76.8859 15.5003 76.8859 15.551 76.8859 15.6018C76.8859 15.6525 76.8859 15.6947 76.8859 15.7286C76.869 15.8638 76.8436 15.9906 76.8098 16.109C76.7929 16.2273 76.7675 16.3287 76.7337 16.4133C76.6661 16.5823 76.5309 16.7599 76.328 16.9458C76.1251 17.1149 75.8884 17.284 75.6179 17.453C75.4826 17.5545 75.3474 17.6475 75.2121 17.732C75.0769 17.8165 74.9332 17.9011 74.781 17.9856C74.6289 18.0701 74.4767 18.1631 74.3245 18.2646C74.1893 18.3491 74.054 18.4336 73.9188 18.5182C73.699 18.6534 73.4707 18.7718 73.2341 18.8732C72.9974 18.9577 72.7607 19.0169 72.524 19.0507C72.4394 19.0676 72.3549 19.0761 72.2704 19.0761C72.2027 19.093 72.1267 19.1014 72.0421 19.1014C71.9576 19.1014 71.8731 19.093 71.7885 19.0761C71.7209 19.0761 71.6533 19.0676 71.5857 19.0507C71.5518 19.0507 71.5096 19.0423 71.4589 19.0254C71.425 19.0254 71.3912 19.0169 71.3574 19C71.2391 18.9831 71.1461 18.8817 71.0785 18.6957C71.0108 18.5097 70.977 18.2984 70.977 18.0617C70.977 18.0448 70.977 18.0279 70.977 18.011C70.977 17.9941 70.977 17.9771 70.977 17.9602C70.977 17.9433 70.977 17.9264 70.977 17.9095C70.977 17.8926 70.977 17.8757 70.977 17.8588C70.9094 17.9264 70.8333 18.0025 70.7488 18.087C70.6811 18.1547 70.6051 18.2223 70.5205 18.2899C70.2838 18.4928 69.988 18.6788 69.6329 18.8478C69.2779 19 68.7876 19.0845 68.1621 19.1014C68.1621 19.1014 68.1536 19.1014 68.1367 19.1014C68.1367 19.1014 68.1282 19.1014 68.1113 19.1014C68.0944 19.1014 68.0775 19.1014 68.0606 19.1014C67.5027 19.1014 66.987 18.9239 66.5137 18.5689C66.0572 18.1969 65.7698 17.6306 65.6514 16.8698C65.6176 16.6331 65.5922 16.4133 65.5753 16.2104C65.5584 15.9906 65.55 15.7962 65.55 15.6271C65.55 15.2045 65.5922 14.8579 65.6768 14.5874C65.7444 14.2999 65.8289 14.0294 65.9304 13.7758C65.9811 13.6744 66.0318 13.573 66.0825 13.4715C66.1333 13.3701 66.184 13.2602 66.2347 13.1418C66.3192 12.9559 66.4545 12.7614 66.6405 12.5586C66.8433 12.3388 67.08 12.119 67.3505 11.8992C67.9085 11.4596 68.5847 11.0454 69.3793 10.6566C70.1739 10.2677 71.0024 10.0141 71.8646 9.89576C71.9999 9.87885 72.1351 9.8704 72.2704 9.8704C72.4225 9.85349 72.5662 9.84504 72.7015 9.84504C72.7353 9.84504 72.7607 9.84504 72.7776 9.84504C72.8114 9.84504 72.8452 9.84504 72.879 9.84504C72.8959 9.84504 72.9213 9.84504 72.9551 9.84504C72.9889 9.84504 73.0143 9.84504 73.0312 9.84504C73.0819 9.84504 73.1326 9.84504 73.1833 9.84504C73.2341 9.84504 73.2848 9.84504 73.3355 9.84504C73.4031 9.84504 73.4623 9.85349 73.513 9.8704C73.5806 9.8704 73.6483 9.8704 73.7159 9.8704C74.0033 9.8704 74.2654 9.88731 74.5021 9.92112C74.7387 9.93803 74.8825 9.97184 74.9332 10.0226C74.9501 10.0564 74.967 10.1325 74.9839 10.2508C75.0177 10.3691 75.0431 10.4959 75.06 10.6312C75.06 10.7326 75.06 10.8341 75.06 10.9355C75.0769 11.037 75.0853 11.113 75.0853 11.1638C75.0853 11.2145 75.0853 11.2652 75.0853 11.3159C75.0853 11.3497 75.0938 11.3835 75.1107 11.4174C75.1107 11.4681 75.1107 11.5188 75.1107 11.5695C75.1107 11.6033 75.1107 11.6371 75.1107 11.671C75.1107 11.7724 75.1022 11.8569 75.0853 11.9246C75.0684 11.9753 75.0177 11.9922 74.9332 11.9753C74.8994 11.9753 74.8317 11.9584 74.7303 11.9246C74.6458 11.8738 74.5274 11.8231 74.3753 11.7724C74.2231 11.7048 74.0371 11.6541 73.8173 11.6202C73.6145 11.5695 73.3862 11.5442 73.1326 11.5442C73.1157 11.5442 73.0988 11.5442 73.0819 11.5442C73.065 11.5442 73.0481 11.5442 73.0312 11.5442C73.0312 11.5442 73.0227 11.5442 73.0058 11.5442C72.7353 11.5442 72.4394 11.578 72.1182 11.6456C71.797 11.7132 71.4758 11.8147 71.1545 11.9499C70.4445 12.2204 69.7851 12.6177 69.1765 13.1418C68.5678 13.649 68.2043 14.2154 68.086 14.841C68.0691 15.0438 68.0522 15.2298 68.0353 15.3989C68.0183 15.5679 68.0099 15.7201 68.0099 15.8554C67.993 16.2949 68.0437 16.5993 68.1621 16.7683C68.2973 16.9374 68.4579 17.0219 68.6439 17.0219C68.7115 17.0219 68.7791 17.0135 68.8468 16.9966C68.9313 16.9797 69.0074 16.9627 69.075 16.9458C69.1595 16.912 69.2441 16.8782 69.3286 16.8444C69.4131 16.7937 69.4892 16.743 69.5569 16.6922C69.6076 16.6584 69.6583 16.6246 69.709 16.5908C69.7597 16.557 69.8105 16.5232 69.8612 16.4894C70.1655 16.2696 70.4445 16.0244 70.6981 15.7539C70.9686 15.4665 71.2306 15.1453 71.4842 14.7902C71.6702 14.5197 71.8562 14.2239 72.0421 13.9026C72.245 13.5814 72.4563 13.2264 72.6761 12.8375C72.693 12.8375 72.7099 12.846 72.7269 12.8629C72.7438 12.8629 72.7607 12.8713 72.7776 12.8882C72.8452 12.9051 72.9213 12.9305 73.0058 12.9643C73.1073 12.9812 73.2087 12.9897 73.3101 12.9897C73.3439 13.0066 73.3862 13.015 73.4369 13.015C73.4877 13.015 73.5299 13.015 73.5637 13.015C73.6145 13.015 73.6652 13.015 73.7159 13.015C73.7835 13.015 73.8511 13.015 73.9188 13.015C74.1047 13.015 74.2738 13.015 74.426 13.015C74.595 13.015 74.7303 13.015 74.8317 13.015C74.4429 13.8942 74.0794 14.6634 73.7413 15.3228C73.42 15.9653 73.251 16.4048 73.2341 16.6415C73.2341 16.6584 73.2341 16.6838 73.2341 16.7176C73.2341 16.7345 73.2425 16.7514 73.2594 16.7683ZM82.4088 10.124L79.746 15.9314L79.8221 16.0075L83.2964 12.9897C83.2964 12.9897 83.4739 12.8122 83.829 12.4571C84.184 12.1021 84.5813 11.7132 85.0209 11.2906C85.2238 11.0877 85.4267 10.8848 85.6295 10.6819C85.8493 10.4621 86.0353 10.2762 86.1875 10.124H88.0387C88.0387 10.124 87.8697 10.5129 87.5315 11.2906C87.1934 12.0514 86.8215 12.8967 86.4157 13.8266C86.1114 14.5028 85.824 15.1537 85.5535 15.7793C85.283 16.3879 85.0801 16.8444 84.9448 17.1487C85.1139 17.0473 85.3421 16.8951 85.6295 16.6922C85.917 16.4725 86.2213 16.2358 86.5425 15.9822C86.5594 15.9653 86.5763 15.9568 86.5932 15.9568C86.627 15.9399 86.6524 15.923 86.6693 15.9061C87.092 15.5679 87.4724 15.2636 87.8105 14.9931C88.1655 14.7057 88.3515 14.562 88.3684 14.562C88.3853 14.562 88.4022 14.5705 88.4191 14.5874C88.4361 14.5874 88.453 14.6043 88.4699 14.6381C88.5206 14.7226 88.5629 14.8663 88.5967 15.0692C88.6474 15.2721 88.6727 15.4834 88.6727 15.7032C88.6727 15.9906 88.622 16.2189 88.5206 16.3879C88.4361 16.5401 88.3431 16.6669 88.2416 16.7683C88.2078 16.8021 88.1655 16.8359 88.1148 16.8698C88.081 16.9036 88.0472 16.9289 88.0134 16.9458C87.7936 17.1149 87.5738 17.2924 87.354 17.4784C87.1342 17.6475 86.906 17.8165 86.6693 17.9856C86.6017 18.0363 86.5341 18.087 86.4664 18.1378C86.4157 18.1885 86.3565 18.2392 86.2889 18.2899C85.5788 18.8478 84.9195 19.3889 84.3108 19.913C83.7022 20.454 83.288 20.902 83.0682 21.257C82.8822 21.5275 82.7047 21.8319 82.5356 22.17C82.3835 22.5081 82.2313 22.8547 82.0791 23.2098C82.0115 23.3788 81.9354 23.5479 81.8509 23.717C81.7833 23.886 81.7157 24.0466 81.648 24.1988C81.5466 24.4017 81.4451 24.5961 81.3437 24.7821C81.2592 24.985 81.1662 25.1709 81.0647 25.34C80.9464 25.5598 80.8196 25.7373 80.6843 25.8726C80.5491 26.0247 80.4054 26.1431 80.2532 26.2276C80.1518 26.2952 80.0503 26.3375 79.9489 26.3544C79.8475 26.3882 79.746 26.4051 79.6446 26.4051C79.577 26.422 79.5009 26.422 79.4163 26.4051C79.3487 26.3882 79.2811 26.3629 79.2135 26.329C78.9768 26.2614 78.7993 26.1177 78.6809 25.8979C78.5626 25.6781 78.5034 25.4245 78.5034 25.1371C78.5034 25.0357 78.5118 24.9342 78.5287 24.8328C78.5457 24.7314 78.5626 24.6215 78.5795 24.5031C78.6133 24.351 78.6555 24.1988 78.7063 24.0466C78.757 23.9114 78.8162 23.7677 78.8838 23.6155C79.0529 23.2436 79.2557 22.8632 79.4924 22.4743C79.746 22.1024 79.9912 21.7389 80.2279 21.3838C80.4646 21.0457 80.6928 20.716 80.9126 20.3948C81.1493 20.0736 81.3522 19.7693 81.5212 19.4818C81.6734 19.2282 81.8171 18.9746 81.9523 18.721C82.0876 18.4505 82.2144 18.1716 82.3327 17.8842C82.5018 17.4953 82.6624 17.1065 82.8146 16.7176C82.9837 16.3287 83.1527 15.9737 83.3218 15.6525C83.3556 15.551 83.3979 15.4581 83.4486 15.3735C83.4993 15.289 83.55 15.2045 83.6007 15.1199L83.55 15.0692C83.4148 15.1199 83.1189 15.3482 82.6624 15.7539C82.2059 16.1428 81.6903 16.5739 81.1155 17.0473C81.0309 17.1149 80.9464 17.191 80.8619 17.2755C80.7773 17.3431 80.6928 17.4108 80.6083 17.4784C80.1856 17.8165 79.7714 18.1293 79.3656 18.4167C78.9768 18.6872 78.6386 18.8732 78.3512 18.9746C78.3174 18.9746 78.2836 18.9831 78.2498 19C78.216 19 78.1822 19 78.1483 19C78.0807 19.0169 78.0131 19.0338 77.9455 19.0507C77.8778 19.0676 77.8102 19.0845 77.7426 19.1014C77.7088 19.1014 77.675 19.1014 77.6411 19.1014C77.6242 19.1014 77.6073 19.1014 77.5904 19.1014C77.5735 19.1014 77.5566 19.1014 77.5397 19.1014C77.5228 19.1014 77.5143 19.1014 77.5143 19.1014C77.3115 19.0845 77.1255 19.0338 76.9564 18.9493C76.8043 18.8478 76.7113 18.6619 76.6775 18.3914C76.6775 18.3575 76.6775 18.3322 76.6775 18.3153C76.6775 18.2815 76.6775 18.2561 76.6775 18.2392C76.6775 18.1039 76.6944 17.9602 76.7282 17.8081C76.762 17.6559 76.8127 17.5038 76.8803 17.3516C76.8973 17.284 76.9226 17.2163 76.9564 17.1487C76.9902 17.0642 77.0241 16.9881 77.0579 16.9205C77.1255 16.7514 77.1931 16.5993 77.2607 16.464C77.3284 16.3287 77.3791 16.2104 77.4129 16.109L77.3115 16.0075C77.3115 16.0075 77.2692 16.0498 77.1847 16.1343C77.117 16.2189 77.0241 16.3203 76.9057 16.4386C76.8888 16.4555 76.8634 16.4809 76.8296 16.5147C76.7958 16.5316 76.7705 16.5485 76.7535 16.5654C76.6859 16.65 76.6183 16.7176 76.5507 16.7683C76.4661 16.8021 76.3985 16.8275 76.3478 16.8444C76.2971 16.8613 76.2548 16.7937 76.221 16.6415C76.1872 16.4725 76.1703 16.2865 76.1703 16.0836C76.1703 16.0329 76.1703 15.9822 76.1703 15.9314C76.1534 15.8638 76.1449 15.8046 76.1449 15.7539C76.1449 15.737 76.1449 15.7201 76.1449 15.7032C76.1449 15.6863 76.1449 15.6694 76.1449 15.6525C76.1449 15.5172 76.1618 15.3904 76.1956 15.2721C76.2125 15.1368 76.2379 15.0185 76.2717 14.917C76.2886 14.8832 76.3055 14.8494 76.3224 14.8156C76.3224 14.7818 76.3309 14.7564 76.3478 14.7395C76.3647 14.7057 76.5591 14.5282 76.9311 14.207C77.303 13.8857 77.7088 13.5053 78.1483 13.0658C78.2329 12.9981 78.3174 12.9221 78.4019 12.8375C78.4865 12.753 78.571 12.6685 78.6555 12.5839C78.8246 12.4149 78.9852 12.2458 79.1374 12.0767C79.2895 11.9077 79.4248 11.747 79.5431 11.5949L80.2025 10.124H82.4088Z" fill="white"/>
</svg>
