<svg width="24" height="24" viewBox="0 0 24 24" fill="none" xmlns="http://www.w3.org/2000/svg">
<g clip-path="url(#clip0_2263_1647)">
<path d="M7.10048 13.8361L6.48785 16.1231L4.2487 16.1705C3.57952 14.9293 3.19995 13.5092 3.19995 12.0002C3.19995 10.5409 3.55484 9.16481 4.1839 7.95312H4.18438L6.17786 8.3186L7.05112 10.3001C6.86835 10.833 6.76873 11.405 6.76873 12.0002C6.7688 12.6461 6.88581 13.2651 7.10048 13.8361Z" fill="#FBBB00"/>
<path d="M20.6461 10.3564C20.7472 10.8888 20.7999 11.4385 20.7999 12.0004C20.7999 12.6304 20.7337 13.245 20.6075 13.8378C20.1791 15.855 19.0597 17.6164 17.5091 18.863L17.5086 18.8625L14.9977 18.7344L14.6424 16.516C15.6713 15.9125 16.4754 14.9682 16.899 13.8378H12.1934V10.3564H16.9676H20.6461Z" fill="#518EF8"/>
<path d="M17.5087 18.8621L17.5092 18.8626C16.0011 20.0747 14.0854 20.8 12 20.8C8.64878 20.8 5.73512 18.9269 4.24878 16.1703L7.10056 13.8359C7.84372 15.8193 9.757 17.2312 12 17.2312C12.9641 17.2312 13.8674 16.9706 14.6424 16.5156L17.5087 18.8621Z" fill="#28B446"/>
<path d="M17.6169 5.22612L14.7661 7.56005C13.9639 7.05865 13.0157 6.76901 11.9999 6.76901C9.70608 6.76901 7.75702 8.24566 7.05109 10.3001L4.18432 7.95316H4.18384C5.64842 5.12942 8.59883 3.2002 11.9999 3.2002C14.1351 3.2002 16.0929 3.96078 17.6169 5.22612Z" fill="#F14336"/>
</g>
<defs>
<clipPath id="clip0_2263_1647">
<rect width="17.6" height="17.6" fill="white" transform="translate(3.19995 3.2002)"/>
</clipPath>
</defs>
</svg>
