<svg width="19" height="20" viewBox="0 0 19 20" fill="none" xmlns="http://www.w3.org/2000/svg">
<path fill-rule="evenodd" clip-rule="evenodd" d="M11.0975 0.481037C11.0409 0.513395 10.9437 0.575811 10.8816 0.619818C10.8195 0.663825 10.7361 0.721399 10.6963 0.747765C10.6565 0.774131 10.4988 0.881992 10.3461 0.987455C10.1933 1.09292 10.0406 1.19647 10.0066 1.21756C9.97269 1.23865 9.91531 1.27748 9.87916 1.3039C9.84306 1.33031 9.79965 1.36051 9.78278 1.37101C9.76592 1.38151 9.7026 1.42465 9.64209 1.46684C9.58162 1.50902 9.50002 1.56511 9.46083 1.59148C9.42159 1.61784 9.30185 1.69982 9.19469 1.77364C9.08757 1.84747 8.97353 1.92398 8.94132 1.94363C8.90912 1.96328 8.86024 1.9978 8.83274 2.02033C8.80523 2.04286 8.75816 2.07632 8.72809 2.09473C8.6662 2.1327 8.56802 2.19885 8.40785 2.31055C8.34738 2.35273 8.26696 2.40796 8.22915 2.43327C8.19139 2.45863 8.15619 2.48552 8.15097 2.49305C8.14574 2.50058 8.10727 2.5255 8.06547 2.54842C7.99583 2.58662 7.88449 2.6605 7.83723 2.69981C7.82669 2.70858 7.76764 2.74971 7.70608 2.79122C7.64448 2.83269 7.56259 2.8882 7.52402 2.91457C7.48549 2.94093 7.42479 2.98135 7.38921 3.00431C7.35359 3.02732 7.29882 3.06428 7.26747 3.08643C7.12962 3.18379 7.07277 3.22343 7.00294 3.27108C6.962 3.29903 6.91925 3.32981 6.90794 3.33949C6.89668 3.34913 6.82762 3.39606 6.75447 3.44371C6.41233 3.66657 6.36464 3.81768 6.57406 4.01537C6.62536 4.06379 6.67624 4.10343 6.68716 4.10343C6.69804 4.10343 6.72374 4.12036 6.74421 4.14102C6.76468 4.16168 6.81057 4.19835 6.84619 4.22251C6.96865 4.30564 7.13148 4.41992 7.18197 4.45818C7.2098 4.47927 7.27887 4.52865 7.33549 4.56791C7.49385 4.67769 7.59997 4.75405 7.62486 4.77605C7.6373 4.78708 7.66984 4.81067 7.6972 4.8285C7.80056 4.89576 7.91727 4.97835 8.02747 5.0622C8.09017 5.1099 8.17914 5.17471 8.22516 5.20625C8.27124 5.23775 8.32776 5.27648 8.35085 5.2923C8.41208 5.33429 8.60459 5.47413 8.69247 5.54048C8.73427 5.57202 8.81122 5.62753 8.86347 5.66382C8.91572 5.70006 9.02687 5.77835 9.11047 5.83769C9.19407 5.89704 9.29667 5.96895 9.33847 5.99747C9.38027 6.02595 9.46634 6.08932 9.5297 6.13826C9.59307 6.18721 9.67002 6.24133 9.7007 6.25859C9.76269 6.29349 9.87793 6.37556 10.0477 6.5059C10.1097 6.55351 10.1807 6.60317 10.2055 6.6163C10.2302 6.62944 10.2772 6.66266 10.3098 6.69013C10.3425 6.71755 10.4521 6.79612 10.5533 6.86467C10.712 6.9722 10.8284 7.05762 10.9199 7.1337C11.038 7.23197 11.1864 7.2651 11.3011 7.21874C11.4454 7.16045 11.4498 7.13097 11.4633 6.12216C11.4775 5.07126 11.467 5.10496 11.7389 5.23477C11.8052 5.26641 11.8693 5.2923 11.8814 5.2923C11.8935 5.2923 11.9548 5.31795 12.0175 5.34935C12.0802 5.38075 12.1614 5.41991 12.198 5.43635C12.2591 5.46387 12.3257 5.49978 12.586 5.64517C12.6375 5.67394 12.7006 5.71416 12.7264 5.73458C12.7521 5.755 12.7834 5.77168 12.796 5.77168C12.8085 5.77168 12.848 5.79325 12.8837 5.81962C12.9193 5.84599 13.0382 5.93395 13.148 6.01506C13.5316 6.29886 13.994 6.73845 14.2405 7.05369C14.5126 7.40187 14.6112 7.53911 14.6967 7.68921C14.7237 7.73667 14.7745 7.82295 14.8096 7.88096C14.8447 7.93897 14.9178 8.07703 14.972 8.18776C15.0262 8.2985 15.0858 8.41931 15.1044 8.45622C15.123 8.49313 15.1535 8.57079 15.172 8.6288C15.1906 8.6868 15.2165 8.75152 15.2294 8.77261C15.2424 8.7937 15.2676 8.86264 15.2854 8.92577C15.3031 8.98891 15.3294 9.06345 15.3437 9.0914C15.358 9.11939 15.3834 9.20861 15.3999 9.28972C15.4165 9.37078 15.4462 9.49039 15.4659 9.55549C15.4856 9.62059 15.5205 9.81622 15.5434 9.99024C15.5664 10.1643 15.5919 10.3541 15.6 10.4121C15.6199 10.554 15.6192 11.1874 15.599 11.39C15.5475 11.9058 15.4602 12.3795 15.3675 12.646C15.3565 12.6777 15.3276 12.7699 15.3032 12.851C15.2788 12.9322 15.2424 13.0314 15.2223 13.0716C15.2022 13.1117 15.1794 13.1661 15.1716 13.1925C15.1395 13.3009 14.909 13.7774 14.8099 13.9403C14.7747 13.9983 14.7237 14.0846 14.6967 14.1321C14.6398 14.2319 14.5903 14.3048 14.4641 14.4748C14.4143 14.5419 14.3608 14.6153 14.3453 14.6377C14.2062 14.8399 13.7405 15.3252 13.452 15.5689C13.2467 15.7423 13.2597 15.7318 13.1634 15.801C12.9225 15.9739 12.7875 16.0624 12.5875 16.1786C12.5352 16.2089 12.4754 16.2438 12.4545 16.256C12.3665 16.3076 11.8974 16.5268 11.8275 16.549C11.7857 16.5623 11.7344 16.5841 11.7135 16.5975C11.6926 16.6108 11.637 16.6315 11.59 16.6435C11.5429 16.6555 11.453 16.6855 11.39 16.7104C11.3271 16.7351 11.2331 16.7614 11.181 16.7687C11.129 16.776 11.0206 16.8024 10.9401 16.8275C10.8596 16.8525 10.6843 16.8871 10.5506 16.9044C10.4169 16.9217 10.222 16.9471 10.1175 16.961C9.86135 16.9951 9.34825 16.9944 9.09147 16.9597C8.97652 16.9442 8.784 16.9191 8.66364 16.9039C8.42376 16.8737 8.31404 16.8517 8.19847 16.8107C8.15667 16.7959 8.0801 16.7774 8.02832 16.7697C7.9765 16.7619 7.87157 16.7305 7.79505 16.6998C7.71858 16.6691 7.64091 16.6441 7.62248 16.6441C7.60405 16.6441 7.55584 16.627 7.51528 16.6061C7.47476 16.5853 7.41097 16.5586 7.37354 16.547C7.29578 16.5227 7.13452 16.4479 6.88747 16.3215C6.5924 16.1705 6.54827 16.1458 6.50832 16.109C6.48695 16.0893 6.45099 16.0675 6.42838 16.0606C6.40577 16.0537 6.35746 16.0247 6.32094 15.9961C6.28446 15.9675 6.23026 15.9291 6.20052 15.9106C5.80941 15.6676 5.15804 15.0382 4.81647 14.5731C4.78512 14.5305 4.73382 14.4622 4.70247 14.4215C4.67112 14.3807 4.62837 14.3191 4.60747 14.2844C4.58657 14.2497 4.54235 14.1775 4.50914 14.124C4.39657 13.9422 4.32698 13.8161 4.23322 13.624C4.18177 13.5185 4.11884 13.3912 4.09333 13.3411C4.06782 13.291 4.04697 13.2399 4.04697 13.2276C4.04697 13.2152 4.02236 13.1484 3.9923 13.079C3.89867 12.863 3.73812 12.3094 3.70264 12.0803C3.64488 11.7072 3.62498 11.5408 3.60878 11.2942C3.56157 10.5754 3.56285 10.5847 3.49545 10.4504C3.37408 10.2087 3.24379 10.0548 3.07797 9.9573C3.03094 9.92964 2.97964 9.89633 2.96397 9.88319C2.80693 9.75184 2.14326 9.75793 1.95697 9.89249C1.93084 9.91133 1.88382 9.94024 1.85247 9.95668C1.41903 10.1843 1.26314 10.7817 1.38592 11.7448C1.40606 11.903 1.43209 12.1151 1.44368 12.2162C1.45532 12.3173 1.4775 12.4425 1.49299 12.4943C1.50852 12.5461 1.53313 12.6628 1.54771 12.7536C1.56234 12.8445 1.58671 12.9488 1.60195 12.9856C1.61715 13.0223 1.64375 13.1163 1.66104 13.1944C1.67838 13.2724 1.71291 13.3924 1.73785 13.461C1.76279 13.5295 1.79599 13.6244 1.81167 13.6719C1.88092 13.8817 1.95227 14.0689 1.97986 14.113C1.9963 14.1393 2.0201 14.1937 2.03273 14.234C2.0599 14.3204 2.38233 14.9666 2.46028 15.0909C2.49006 15.1383 2.53286 15.2073 2.55547 15.2443C2.70481 15.4886 2.84859 15.7054 2.93547 15.8173C2.99437 15.8932 3.01593 15.9212 3.14447 16.0891C3.42301 16.4527 4.16083 17.2092 4.39372 17.3698C4.41723 17.386 4.49204 17.4448 4.55997 17.5004C4.77168 17.6736 4.79614 17.6923 4.84497 17.718C4.87109 17.7317 4.9222 17.7675 4.95854 17.7975C4.99488 17.8275 5.03269 17.8521 5.04257 17.8521C5.0524 17.8521 5.07667 17.8669 5.09653 17.885C5.13448 17.9197 5.15533 17.933 5.43748 18.1018C5.68847 18.252 5.71607 18.2675 5.83297 18.3233C5.89044 18.3507 5.95029 18.3843 5.96597 18.3978C5.98164 18.4114 6.02867 18.4334 6.07047 18.4468C6.11227 18.4601 6.16784 18.4859 6.19397 18.5041C6.22009 18.5222 6.27567 18.5481 6.31747 18.5615C6.35927 18.575 6.42686 18.6029 6.46771 18.6236C6.50856 18.6444 6.58551 18.6743 6.63871 18.6901C6.69191 18.7059 6.74525 18.727 6.75722 18.7368C6.78169 18.7569 7.06099 18.8552 7.21997 18.8997C7.27744 18.9157 7.39714 18.95 7.48597 18.9757C7.57479 19.0015 7.70276 19.0315 7.77035 19.0424C7.83794 19.0534 7.95337 19.0792 8.02685 19.0997C8.10033 19.1203 8.25879 19.1464 8.37897 19.1578C8.49914 19.1691 8.68724 19.1917 8.79697 19.2079C9.10809 19.2539 9.96409 19.2636 10.2505 19.2245C10.3759 19.2073 10.5853 19.1842 10.716 19.1732C10.8466 19.1621 11.0603 19.1285 11.191 19.0986C11.3216 19.0686 11.4669 19.038 11.514 19.0306C11.561 19.0232 11.6422 19.0001 11.6945 18.9794C11.7467 18.9586 11.84 18.9334 11.9018 18.9233C11.9635 18.9132 12.049 18.8889 12.0918 18.8693C12.1345 18.8498 12.2069 18.8237 12.2527 18.8113C12.2985 18.799 12.3799 18.7686 12.4335 18.7438C12.4872 18.7191 12.5566 18.6928 12.5878 18.6855C12.619 18.6782 12.695 18.6473 12.7568 18.6169C12.8185 18.5865 12.8806 18.5616 12.8948 18.5616C12.9089 18.5616 12.9653 18.5366 13.02 18.506C13.0747 18.4754 13.1408 18.4441 13.167 18.4364C13.1931 18.4286 13.2376 18.4059 13.2659 18.3858C13.2942 18.3657 13.3455 18.3395 13.3799 18.3276C13.4143 18.3157 13.4689 18.2858 13.5013 18.2612C13.5336 18.2366 13.5685 18.2164 13.5787 18.2164C13.5891 18.2164 13.6353 18.1919 13.6814 18.162C13.757 18.113 13.8195 18.0747 14.0103 17.9605C14.0429 17.9411 14.0866 17.91 14.1075 17.8915C14.1284 17.8729 14.1583 17.8531 14.174 17.8472C14.2001 17.8375 14.4798 17.6365 14.592 17.5469C14.6181 17.526 14.6811 17.4761 14.7321 17.436C14.9621 17.255 15.3882 16.8634 15.5507 16.6837C15.5929 16.6371 15.6629 16.562 15.7061 16.517C15.7494 16.472 15.8178 16.3941 15.8581 16.3439C15.8985 16.2936 15.9443 16.2384 15.96 16.2211C15.9756 16.2038 16.0227 16.1442 16.0645 16.0885C16.1063 16.0329 16.1788 15.9392 16.2255 15.8803C16.2723 15.8213 16.3812 15.6649 16.4674 15.5327C16.5536 15.4004 16.6392 15.2706 16.6576 15.2443C16.6759 15.2179 16.7047 15.1704 16.7215 15.1388C16.7384 15.1072 16.7962 15.002 16.8501 14.9051C16.9039 14.8083 16.948 14.7211 16.948 14.7113C16.948 14.7015 16.9676 14.6643 16.9916 14.6285C17.0156 14.5928 17.0505 14.5247 17.0692 14.4772C17.0879 14.4298 17.1144 14.378 17.1282 14.3622C17.142 14.3464 17.1643 14.2946 17.1779 14.2471C17.1915 14.1997 17.2165 14.135 17.2337 14.1033C17.2508 14.0717 17.2802 13.9983 17.299 13.9403C17.3178 13.8823 17.348 13.8047 17.366 13.7678C17.3841 13.7309 17.4094 13.655 17.4224 13.5993C17.4355 13.5435 17.4612 13.4658 17.4795 13.4267C17.498 13.3875 17.5192 13.3212 17.5267 13.2793C17.5341 13.2374 17.5652 13.1256 17.5956 13.0308C17.6261 12.936 17.6511 12.8366 17.6512 12.8098C17.6513 12.783 17.6727 12.6765 17.6988 12.5732C17.7248 12.4698 17.7632 12.2369 17.7839 12.0555C17.8047 11.874 17.8305 11.6738 17.8413 11.6105C17.8725 11.4291 17.8656 10.3991 17.8316 10.141C17.8158 10.0212 17.7899 9.81095 17.7739 9.67385C17.7579 9.53674 17.7287 9.36417 17.709 9.29034C17.6893 9.21652 17.6635 9.09706 17.6517 9.02491C17.6399 8.95271 17.618 8.86211 17.6029 8.82357C17.588 8.78498 17.5594 8.68373 17.5395 8.59859C17.5196 8.51341 17.4907 8.41849 17.4752 8.38767C17.4597 8.35679 17.4362 8.28412 17.4229 8.22612C17.4097 8.16811 17.384 8.09045 17.366 8.05354C17.3479 8.01663 17.3224 7.95191 17.3092 7.90972C17.296 7.86754 17.2649 7.78748 17.2401 7.73178C17.2153 7.67612 17.195 7.62579 17.195 7.61994C17.195 7.6034 16.8971 7.00221 16.8286 6.88059C16.795 6.82076 16.7516 6.7431 16.7322 6.70801C16.7128 6.67287 16.669 6.60101 16.635 6.54828C16.6009 6.49555 16.5465 6.40926 16.5139 6.35653C16.4231 6.20941 16.3396 6.08898 16.2355 5.95476C15.998 5.64882 15.9493 5.5877 15.9221 5.56075C15.9062 5.54493 15.8692 5.49959 15.84 5.46004C15.7851 5.38559 15.2961 4.88353 15.0955 4.69571C14.9889 4.59595 14.7655 4.41211 14.562 4.25684C14.5136 4.21992 14.4615 4.17769 14.4461 4.16293C14.4307 4.14821 14.361 4.09922 14.2913 4.05415C14.2215 4.00904 14.1431 3.95545 14.117 3.93508C14.0908 3.9147 14.0395 3.88287 14.003 3.86427C13.9664 3.84572 13.9194 3.81566 13.8985 3.79759C13.8572 3.76188 13.7235 3.68096 13.58 3.60488C13.3356 3.4753 13.094 3.3556 13.0768 3.3556C13.0662 3.3556 13.0474 3.34314 13.0348 3.32789C13.0223 3.31265 12.9678 3.28537 12.9137 3.26725C12.8597 3.24913 12.7778 3.21413 12.7319 3.18949C12.6859 3.16485 12.6342 3.14467 12.6169 3.14467C12.5996 3.14467 12.5432 3.12348 12.4915 3.0976C12.4397 3.07171 12.3504 3.03791 12.293 3.02257C12.2355 3.00723 12.1564 2.98082 12.1171 2.9639C12.0779 2.94697 11.9881 2.91984 11.9176 2.90354C11.7482 2.86443 11.5702 2.80048 11.5255 2.7628C11.4908 2.73341 11.49 2.69789 11.5025 1.71113C11.5167 0.58281 11.5158 0.572071 11.408 0.489043C11.3081 0.412102 11.222 0.409897 11.0975 0.481037Z" fill="#CCCCCC"/>
</svg>
