<svg width="24" height="24" viewBox="0 0 24 24" fill="none" xmlns="http://www.w3.org/2000/svg">
<path d="M11.3946 17.9252H12.5418C12.5418 17.9252 12.8887 17.8867 13.0651 17.6956C13.2283 17.5202 13.2223 17.1909 13.2223 17.1909C13.2223 17.1909 13.1995 15.6488 13.9147 15.4217C14.6192 15.1981 15.5241 16.912 16.4829 17.5719C17.2078 18.0706 17.7586 17.9613 17.7586 17.9613L20.3232 17.9252C20.3232 17.9252 21.6649 17.8423 21.0289 16.7858C20.9773 16.6993 20.658 16.0046 19.1219 14.5768C17.5138 13.0816 17.7298 13.3244 19.6668 10.7392C20.8465 9.16469 21.3181 8.20319 21.1705 7.79214C21.0301 7.40033 20.1624 7.50369 20.1624 7.50369L17.2774 7.52052C17.2774 7.52052 17.0638 7.49167 16.9042 7.58662C16.7494 7.68037 16.6497 7.89671 16.6497 7.89671C16.6497 7.89671 16.1925 9.11541 15.5829 10.1514C14.2976 12.3377 13.7827 12.453 13.5727 12.3172C13.0843 12.0011 13.2067 11.0456 13.2067 10.3678C13.2067 8.24886 13.5271 7.36547 12.5814 7.13712C12.267 7.0614 12.0366 7.01092 11.2337 7.00251C10.2041 6.99169 9.33161 7.00611 8.83837 7.24769C8.50955 7.40874 8.25633 7.7681 8.41114 7.78854C8.60195 7.81378 9.03398 7.90512 9.2632 8.21761C9.55962 8.62024 9.54882 9.52646 9.54882 9.52646C9.54882 9.52646 9.71923 12.0204 9.15159 12.3304C8.76156 12.5432 8.22752 12.1093 7.08144 10.125C6.4946 9.1094 6.05057 7.98565 6.05057 7.98565C6.05057 7.98565 5.96536 7.77652 5.81295 7.66474C5.62813 7.52893 5.36892 7.48566 5.36892 7.48566L2.62551 7.50249C2.62551 7.50249 2.21388 7.51451 2.06267 7.69359C1.92826 7.85344 2.05187 8.18275 2.05187 8.18275C2.05187 8.18275 4.20003 13.215 6.63141 15.7522C8.86237 18.0778 11.3946 17.9252 11.3946 17.9252Z" fill="#1E88E5"/>
</svg>
