<svg width="30" height="22" viewBox="0 0 30 22" fill="none" xmlns="http://www.w3.org/2000/svg">
<path d="M12.4667 17.6666L20 10.1333L18.0667 8.19992L12.4333 13.8333L9.63333 11.0333L7.73333 12.9333L12.4667 17.6666ZM7.33333 21.6666C5.31111 21.6666 3.58356 20.9666 2.15067 19.5666C0.716889 18.1666 0 16.4555 0 14.4333C0 12.6999 0.522222 11.1555 1.56667 9.79992C2.61111 8.44436 3.97778 7.5777 5.66667 7.19992C6.22222 5.15547 7.33333 3.49992 9 2.23325C10.6667 0.966586 12.5556 0.333252 14.6667 0.333252C17.2667 0.333252 19.472 1.23859 21.2827 3.04925C23.0942 4.86081 24 7.06659 24 9.66659C25.5333 9.84436 26.8058 10.5053 27.8173 11.6493C28.828 12.7941 29.3333 14.1333 29.3333 15.6666C29.3333 17.3333 28.7502 18.7501 27.584 19.9173C26.4169 21.0835 25 21.6666 23.3333 21.6666H7.33333Z" fill="#C6C3C2" fill-opacity="0.75"/>
</svg>
